<svg width="128" height="102" viewBox="0 0 128 102" fill="none" xmlns="http://www.w3.org/2000/svg">
  <path d="M32.0068 25.0147V18.3426C32.0068 13.7554 39.096 12.9215 39.096 18.3426V25.0147C39.096 29.1847 32.0068 29.1847 32.0068 25.0147Z" stroke="#3FC7B8" stroke-width="5"/>
  <path d="M48.2703 25.4381V18.7659C48.2703 14.1787 55.3594 13.3449 55.3594 18.7659V25.4381C55.3594 29.6081 48.2703 29.6081 48.2703 25.4381Z" stroke="#3FC7B8" stroke-width="5"/>
  <path d="M36.5941 39.6096C36.5941 32.1037 28.671 32.5209 27.8369 39.6096C27.0027 46.6983 30.3388 55.7765 43.6832 56.29C57.0276 56.8035 59.9987 45.4475 60.3636 39.6096C60.7285 33.7717 52.0234 33.7717 52.4404 39.6096C52.8574 45.4475 47.4363 47.9498 43.6832 47.9498C40.7642 47.9498 36.5941 47.1155 36.5941 39.6096Z" stroke="#3FC7B8" stroke-width="5"/>
  <path d="M26.1683 78.8086C20.2981 78.6752 17.8281 66.2983 17.8281 66.2983H12.407C9.48848 66.2983 3.23276 62.9625 3.23276 57.5411C3.23276 57.5411 2.70905 26.2907 3.23276 16.6743C3.75647 7.05782 6.6114 4.45075 15.3261 3.74698C24.0407 3.0432 64.1156 2.49576 73.2903 3.74698C82.4651 4.99819 84.9666 8.75128 84.9666 16.6743C84.9666 24.5972 85.8 44.6136 84.9666 53.371C84.1331 62.1284 78.295 66.1099 72.4563 66.2983C66.6176 66.4868 34.9255 66.2983 34.9255 66.2983C34.9255 66.2983 32.1304 78.9441 26.1683 78.8086Z" stroke="#3FC7B8" stroke-width="6"/>
  <path d="M42.0152 66.2984C42.0152 66.2984 42.0151 72.5536 42.0152 75.8896C42.0152 79.2257 44.9342 85.4809 54.5254 85.4809C64.1167 85.4809 92.0562 85.4809 92.0562 85.4809C92.0562 85.4809 95.2355 99.0974 101.647 98.8251C107.875 98.5607 110.405 85.4809 110.405 85.4809C110.405 85.4809 111.239 85.4809 114.575 85.4809C117.911 85.4809 125 80.8938 125 74.2216C125 67.5495 125 41.6949 125 35.0228C125 28.3506 122.081 22.5125 114.158 22.5125C106.235 22.5125 96.6209 22.5125 85.3841 22.5125" stroke="#3FC7B8" stroke-width="6"/>
</svg>

