<svg width="51" height="50" viewBox="0 0 51 50" fill="none" xmlns="http://www.w3.org/2000/svg">
<path d="M11 50C17.0751 50 22 45.0751 22 39C22 32.9249 17.0751 28 11 28C4.92487 28 0 32.9249 0 39C0 45.0751 4.92487 50 11 50Z" fill="white"/>
<path d="M48.5 39C48.5 43.6944 44.6944 47.5 40 47.5C35.3056 47.5 31.5 43.6944 31.5 39C31.5 34.3056 35.3056 30.5 40 30.5C44.6944 30.5 48.5 34.3056 48.5 39Z" stroke="white" stroke-width="5"/>
<path d="M40 22C46.0751 22 51 17.0751 51 11C51 4.92487 46.0751 0 40 0C33.9249 0 29 4.92487 29 11C29 17.0751 33.9249 22 40 22Z" fill="white"/>
<path d="M11 22C17.0751 22 22 17.0751 22 11C22 4.92487 17.0751 0 11 0C4.92487 0 0 4.92487 0 11C0 17.0751 4.92487 22 11 22Z" fill="white"/>
</svg>
