<svg width="44" height="51" viewBox="0 0 44 51" fill="none" xmlns="http://www.w3.org/2000/svg">
<path d="M34.1401 18.2219C37.9859 20.6353 39.9086 21.842 40.5681 23.3871C41.144 24.7362 41.144 26.2637 40.5681 27.6131C39.9086 29.158 37.9859 30.3647 34.1401 32.7783L16.0777 44.114C11.8094 46.7927 9.67524 48.1321 7.91408 47.9897C6.37896 47.8658 4.97175 47.0829 4.05348 45.8413C3 44.4171 3 41.89 3 36.8358V14.1643C3 9.11017 3 6.58313 4.05348 5.15884C4.97175 3.91734 6.37896 3.13419 7.91408 3.01025C9.67524 2.86809 11.8094 4.20744 16.0777 6.88613L34.1401 18.2219Z" stroke="white" stroke-width="6" stroke-linejoin="round"/>
</svg>
