<svg width="59" height="56" viewBox="0 0 59 56" fill="none" xmlns="http://www.w3.org/2000/svg">
<path d="M27.08 16.7267C28.1567 14.9089 28.695 14 29.5 14C30.3049 14 30.8432 14.9089 31.9199 16.7267L32.1984 17.197C32.5041 17.7135 32.6571 17.9718 32.8957 18.1422C33.1343 18.3127 33.4312 18.3759 34.0253 18.5024L34.5662 18.6176C36.6569 19.0628 37.7024 19.2855 37.9512 20.0382C38.1999 20.7909 37.4871 21.5752 36.0619 23.1439L35.693 23.5498C35.2881 23.9955 35.0856 24.2184 34.9943 24.4941C34.9034 24.7698 34.934 25.0672 34.9952 25.6621L35.051 26.2034C35.2663 28.2965 35.3743 29.3429 34.7232 29.8082C34.0718 30.2733 33.0932 29.8493 31.1356 29.001L30.6293 28.7816C30.0728 28.5405 29.7949 28.42 29.5 28.42C29.205 28.42 28.9271 28.5405 28.3706 28.7816L27.8643 29.001C25.9067 29.8493 24.9281 30.2733 24.2767 29.8082C23.6257 29.3429 23.7335 28.2965 23.9489 26.2034L24.0047 25.6621C24.0659 25.0672 24.0965 24.7698 24.0056 24.4941C23.9143 24.2184 23.7118 23.9955 23.3068 23.5498L22.9381 23.1439C21.5127 21.5752 20.8001 20.7909 21.0488 20.0382C21.2975 19.2855 22.3429 19.0628 24.4337 18.6176L24.9746 18.5024C25.5687 18.3759 25.8657 18.3127 26.1042 18.1422C26.3428 17.9718 26.4958 17.7135 26.8015 17.197L27.08 16.7267Z" stroke="white" stroke-width="4.5"/>
<path d="M48 21.5C48 31.7173 39.7173 40 29.5 40C19.2827 40 11 31.7173 11 21.5C11 11.2827 19.2827 3 29.5 3C39.7173 3 48 11.2827 48 21.5Z" stroke="white" stroke-width="4.5"/>
<path d="M29 39.8475L19.1942 50.2609C17.7899 51.7524 17.0878 52.498 16.4931 52.7558C15.1382 53.3438 13.6351 52.8406 12.9223 51.5606C12.6095 50.9988 12.512 49.9854 12.3171 47.9587C12.207 46.8145 12.152 46.2422 11.9849 45.763C11.611 44.6902 10.8251 43.8555 9.81486 43.4585C9.3636 43.2811 8.82485 43.2227 7.74731 43.1057C5.83886 42.8987 4.88463 42.7953 4.35558 42.463C3.15007 41.7062 2.67624 40.1099 3.22991 38.671C3.47288 38.0395 4.17504 37.2939 5.57935 35.8024L11.9849 29" stroke="white" stroke-width="4.5"/>
<path d="M29 39.8475L39.183 50.2609C40.6413 51.7524 41.3703 52.498 41.9878 52.7558C43.395 53.3438 44.9559 52.8406 45.696 51.5606C46.0208 50.9988 46.122 49.9854 46.3245 47.9587C46.4388 46.8145 46.496 46.2422 46.6693 45.763C47.0579 44.6902 47.8738 43.8555 48.923 43.4585C49.3917 43.2811 49.9512 43.2227 51.0701 43.1057C53.0519 42.8987 54.0428 42.7953 54.5922 42.463C55.8442 41.7062 56.3361 40.1099 55.7613 38.671C55.5089 38.0395 54.7799 37.2939 53.3213 35.8024L46.6693 29" stroke="white" stroke-width="4.5"/>
</svg>
