<svg width="54" height="49" viewBox="0 0 54 49" fill="none" xmlns="http://www.w3.org/2000/svg">
<path d="M51 15.1427V24.6372M22.8 9.20858H14.52C10.4876 9.20858 8.47142 9.20858 6.93127 9.98471C5.5765 10.6674 4.47504 11.7568 3.78475 13.0967C3 14.6199 3 16.614 3 20.602V23.4504C3 25.6624 3 26.7683 3.36538 27.6408C3.85255 28.8039 4.78699 29.7282 5.96311 30.2101C6.84523 30.5713 7.96349 30.5713 10.2 30.5713V40.6593C10.2 41.2105 10.2 41.486 10.2231 41.7179C10.4476 43.972 12.2506 45.7553 14.5295 45.9772C14.7642 46 15.0428 46 15.6 46C16.1572 46 16.4358 46 16.6705 45.9772C18.9494 45.7553 20.7524 43.972 20.9769 41.7179C21 41.486 21 41.2105 21 40.6593V30.5713H22.8C27.0394 30.5713 32.2253 32.8189 36.2263 34.9761C38.5603 36.2344 39.7274 36.8636 40.4918 36.771C41.2006 36.6851 41.7365 36.3704 42.1519 35.796C42.6 35.1767 42.6 33.9372 42.6 31.4584V8.32152C42.6 5.84275 42.6 4.60336 42.1519 3.98393C41.7365 3.40953 41.2006 3.09479 40.4918 3.00893C39.7274 2.91634 38.5603 3.54554 36.2263 4.80395C32.2253 6.961 27.0394 9.20858 22.8 9.20858Z" stroke="white" stroke-width="6" stroke-linecap="round" stroke-linejoin="round"/>
</svg>
