<svg width="51" height="56" viewBox="0 0 51 56" fill="none" xmlns="http://www.w3.org/2000/svg">
<path d="M25.5 53C13.0736 53 3 46.5458 3 35.5V35.2808C3 29.9843 6.3439 25.7485 11.4375 23C16.31 20.3708 19.1902 15.5259 18.4688 10.5L17.0625 3L22.277 4.98647C31.669 8.56435 39.4928 14.7664 44.5623 22.6525C46.815 26.1568 48 30.123 48 34.159V35.5C48 39.406 46.7403 42.738 44.5623 45.4132" stroke="white" stroke-width="5" stroke-linecap="round" stroke-linejoin="round"/>
<path d="M25.5 53C21.3577 53 18 49.4182 18 45C18 41.498 20.5405 38.6973 22.7745 36.1308L25.5 33L28.2255 36.1308C30.4595 38.6973 33 41.498 33 45C33 49.4182 29.6423 53 25.5 53Z" stroke="white" stroke-width="5" stroke-linecap="round" stroke-linejoin="round"/>
</svg>
