<svg width="347" height="372" viewBox="0 0 347 372" fill="none" xmlns="http://www.w3.org/2000/svg">
<path d="M334.178 211.582C334.178 123.058 262.413 51.2922 173.888 51.2922C85.3629 51.2922 13.5981 123.057 13.5981 211.582C13.5981 300.107 85.3636 371.872 173.888 371.872C262.412 371.872 334.178 300.107 334.178 211.582Z" fill="#ECF0F1"/>
<path d="M173.889 346.226C99.6428 346.226 39.2456 285.829 39.2456 211.583C39.2456 137.337 99.6428 76.9397 173.889 76.9397C248.134 76.9397 308.532 137.337 308.532 211.583C308.532 285.829 248.135 346.226 173.889 346.226Z" fill="white"/>
<path d="M211.983 25.6461H135.794C132.044 25.6461 129.005 22.6072 129.005 18.8623V6.78376C129.005 3.03962 132.044 0 135.794 0H211.983C215.734 0 218.767 3.03889 218.767 6.78376V18.8631C218.767 22.6072 215.735 25.6461 211.983 25.6461Z" fill="#D1D4D1"/>
<path d="M323.784 98.6017L298.138 72.9556C292.83 67.647 292.83 59.0293 298.138 53.7207C303.447 48.4121 312.065 48.4121 317.373 53.7207L343.019 79.3668C348.328 84.6754 348.328 93.2931 343.019 98.6017C337.71 103.91 329.093 103.91 323.784 98.6017Z" fill="#D1D4D1"/>
<path d="M23.2164 99.3796L48.8625 73.7335C54.1711 68.4249 54.1711 59.8072 48.8625 54.4986C43.5539 49.1899 34.9362 49.1899 29.6275 54.4986L3.98146 80.1446C-1.32715 85.4532 -1.32715 94.0709 3.98146 99.3796C9.2908 104.688 17.9078 104.688 23.2164 99.3796Z" fill="#D1D4D1"/>
<path d="M67.1578 92.0287L48.8657 73.7366L26.4248 96.1774L45.6532 115.406C52.0331 106.916 59.2527 99.0943 67.1578 92.0287Z" fill="#ECF0F1"/>
<path d="M173.888 51.2928C180.402 51.2928 186.813 51.7286 193.123 52.4789V25.646H154.653V52.4781C160.962 51.7286 167.374 51.2928 173.888 51.2928Z" fill="#ECF0F1"/>
<path d="M302.121 115.407L321.356 96.1726L298.915 73.7317L280.617 92.0304C288.528 99.096 295.741 106.918 302.121 115.407Z" fill="#ECF0F1"/>
<path d="M264.3 112.102L246.425 129.977C243.924 132.478 243.924 136.536 246.425 139.043C247.681 140.293 249.323 140.921 250.958 140.921C252.599 140.921 254.241 140.293 255.491 139.043L273.366 121.168C270.488 118.001 267.468 114.981 264.3 112.102Z" fill="#D1D4D1"/>
<path d="M308.208 205.171H282.888C279.343 205.171 276.477 208.044 276.477 211.583C276.477 215.122 279.343 217.995 282.888 217.995H308.208C308.31 215.854 308.535 213.75 308.535 211.583C308.535 209.416 308.31 207.312 308.208 205.171Z" fill="#D1D4D1"/>
<path d="M273.368 301.996L255.493 284.121C252.992 281.62 248.933 281.62 246.427 284.121C243.926 286.628 243.926 290.686 246.427 293.187L264.302 311.062C267.469 308.184 270.489 305.164 273.368 301.996Z" fill="#D1D4D1"/>
<path d="M173.886 76.9392C171.719 76.9392 169.617 77.1636 167.475 77.266V102.585C167.475 106.125 170.347 108.997 173.886 108.997C177.426 108.997 180.298 106.125 180.298 102.585V77.266C178.157 77.1636 176.054 76.9392 173.886 76.9392Z" fill="#D1D4D1"/>
<path d="M173.886 314.168C170.347 314.168 167.475 317.041 167.475 320.58V345.899C169.616 346.002 171.719 346.226 173.886 346.226C176.054 346.226 178.156 346.002 180.298 345.899V320.58C180.298 317.041 177.426 314.168 173.886 314.168Z" fill="#D1D4D1"/>
<path d="M92.2825 284.124L74.4072 301.999C77.2921 305.16 80.3121 308.186 83.4731 311.065L101.348 293.189C103.856 290.682 103.856 286.63 101.348 284.124C98.8411 281.616 94.789 281.616 92.2825 284.124Z" fill="#D1D4D1"/>
<path d="M39.5705 217.994H64.8897C68.4356 217.994 71.3016 215.121 71.3016 211.582C71.3016 208.043 68.4356 205.17 64.8897 205.17H39.5705C39.4681 207.311 39.2437 209.415 39.2437 211.582C39.2437 213.749 39.4674 215.853 39.5705 217.994Z" fill="#D1D4D1"/>
<path d="M74.4072 121.169L92.2825 139.044C93.5325 140.294 95.1739 140.923 96.8154 140.923C98.4569 140.923 100.092 140.294 101.348 139.044C103.849 136.537 103.849 132.479 101.348 129.979L83.4731 112.103C80.3063 114.982 77.2863 118.002 74.4072 121.169Z" fill="#D1D4D1"/>
</svg>
