<svg width="770" height="855" viewBox="0 0 770 855" fill="none" xmlns="http://www.w3.org/2000/svg">
<path d="M659.636 106.057C616.299 108.284 624.656 173.747 594.634 152.908C564.612 132.076 582.352 101.576 606.968 65.8615C631.579 30.1392 675.876 18.075 705.894 38.9168C735.921 59.7469 716.995 103.092 659.636 106.057Z" fill="white" fill-opacity="0.4"/>
<path d="M739.079 38.5224C748.287 32.7457 756.53 35.9092 761.137 43.2901C765.75 50.6622 764.997 59.457 755.785 65.2261C742.605 73.4861 732.388 71.5669 727.772 64.1974C723.156 56.8278 725.891 46.7773 739.079 38.5224Z" fill="white" fill-opacity="0.4"/>
<path d="M719.468 18.5373C725.667 13.2365 732.144 14.5834 736.414 19.4363C740.687 24.276 741.123 30.7943 734.926 36.0885C726.06 43.6641 718.246 43.4624 713.979 38.6135C709.715 33.762 710.606 26.1103 719.468 18.5373Z" fill="white" fill-opacity="0.4"/>
<path d="M696.771 7.69999C701.514 2.4478 707.351 3.00505 711.687 6.85481C716.023 10.7046 717.218 16.3759 712.467 21.6333C705.678 29.1425 698.826 29.7139 694.49 25.8641C690.155 22.0144 689.979 15.2051 696.771 7.69999Z" fill="white" fill-opacity="0.4"/>
<path d="M675.63 7.55096C678.69 2.99002 683.261 2.86023 687.062 5.44783C690.863 8.03544 692.452 12.3576 689.394 16.9227C685.013 23.4412 679.794 24.5562 675.985 21.9738C672.186 19.3904 671.259 14.086 675.63 7.55096Z" fill="white" fill-opacity="0.4"/>
<path d="M657.704 11.7315C660.182 8.124 663.804 7.97034 666.798 9.96867C669.795 11.9537 671.01 15.3221 668.537 18.9377C665.002 24.0942 660.84 25.0181 657.84 23.029C654.854 21.0428 654.171 16.892 657.704 11.7315Z" fill="white" fill-opacity="0.4"/>
<path d="M365.943 374.714C329.09 397.625 368.068 450.879 331.713 447.161C295.359 443.449 296.133 408.173 300.403 365.008C304.665 321.839 337.6 289.854 373.953 293.576C410.309 297.283 414.711 344.374 365.943 374.714Z" fill="white" fill-opacity="0.4"/>
<path d="M402.809 277.178C408.074 267.669 416.819 266.45 424.421 270.682C432.024 274.903 435.619 282.964 430.347 292.47C422.807 306.074 412.937 309.336 405.332 305.119C397.727 300.902 395.259 290.782 402.809 277.178Z" fill="white" fill-opacity="0.4"/>
<path d="M375.978 269.172C378.84 261.534 385.16 259.58 391.245 261.762C397.326 263.931 400.861 269.425 397.997 277.056C393.902 287.975 386.966 291.578 380.885 289.398C374.807 287.214 371.885 280.087 375.978 269.172Z" fill="white" fill-opacity="0.4"/>
<path d="M350.87 270.666C352.48 263.775 357.859 261.439 363.516 262.711C369.173 263.983 372.962 268.369 371.347 275.269C369.037 285.125 363.316 288.939 357.66 287.667C352.003 286.395 348.556 280.52 350.87 270.666Z" fill="white" fill-opacity="0.4"/>
<path d="M332.294 280.762C332.766 275.289 336.704 272.965 341.282 273.391C345.861 273.818 349.342 276.832 348.874 282.306C348.192 290.131 344.164 293.631 339.581 293.213C335.006 292.79 331.629 288.596 332.294 280.762Z" fill="white" fill-opacity="0.4"/>
<path d="M318.629 293.092C319.053 288.736 322.149 286.849 325.736 287.15C329.319 287.438 332.012 289.798 331.597 294.159C330.997 300.382 327.801 303.204 324.213 302.914C320.639 302.62 318.033 299.317 318.629 293.092Z" fill="white" fill-opacity="0.4"/>
<path d="M279.191 653.518C273.474 692.897 210.415 686.296 228.248 713.237C246.074 740.181 277.226 723.615 314.018 700.728C350.817 677.847 366.192 637.449 348.357 610.511C330.533 583.564 286.777 601.399 279.191 653.518Z" fill="white" fill-opacity="0.4"/>
<path d="M351.458 580.376C357.837 571.929 355.432 564.492 348.622 560.421C341.822 556.345 333.196 557.16 326.824 565.611C317.702 577.701 318.734 586.948 325.532 591.028C332.33 595.108 342.34 592.473 351.458 580.376Z" fill="white" fill-opacity="0.4"/>
<path d="M369.313 597.878C374.982 592.17 374.201 586.31 369.825 582.507C365.463 578.7 359.151 578.402 353.489 584.109C345.386 592.272 344.942 599.363 349.314 603.164C353.689 606.961 361.213 606.038 369.313 597.878Z" fill="white" fill-opacity="0.4"/>
<path d="M378.006 618.322C383.509 613.937 383.444 608.646 380.051 604.767C376.657 600.889 371.233 599.889 365.724 604.282C357.856 610.559 356.739 616.788 360.132 620.666C363.526 624.544 370.142 624.601 378.006 618.322Z" fill="white" fill-opacity="0.4"/>
<path d="M376.419 637.514C381.111 634.666 381.612 630.515 379.404 627.103C377.195 623.691 373.117 622.313 368.421 625.158C361.715 629.235 360.202 633.989 362.405 637.409C364.609 640.818 369.698 641.581 376.419 637.514Z" fill="white" fill-opacity="0.4"/>
<path d="M370.879 653.849C374.595 651.545 375.041 648.254 373.34 645.566C371.653 642.876 368.472 641.823 364.749 644.122C359.439 647.41 358.198 651.202 359.889 653.895C361.579 656.577 365.565 657.134 370.879 653.849Z" fill="white" fill-opacity="0.4"/>
<path d="M92.9024 774.155C56.5637 789.854 72.4226 856.589 44.2429 843.768C16.0628 830.954 26.9638 793.202 42.9769 747.812C58.9844 702.415 94.8129 676.005 122.99 688.83C151.173 701.64 140.996 753.356 92.9024 774.155Z" fill="white" fill-opacity="0.4"/>
<path d="M150.992 678.197C158.001 669.246 165.395 670.058 170.281 676.454C175.171 682.839 175.716 692.382 168.703 701.326C158.67 714.128 149.775 715.242 144.883 708.861C139.99 702.479 140.952 690.997 150.992 678.197Z" fill="white" fill-opacity="0.4"/>
<path d="M131.73 663.075C136.259 655.554 141.915 654.986 146.176 658.809C150.439 662.618 151.684 669.385 147.155 676.898C140.678 687.648 134.045 689.84 129.786 686.02C125.53 682.196 125.255 673.82 131.73 663.075Z" fill="white" fill-opacity="0.4"/>
<path d="M111.084 658.589C114.389 651.568 119.398 650.361 123.581 653.102C127.764 655.843 129.536 661.479 126.225 668.508C121.495 678.548 115.779 681.263 111.596 678.522C107.414 675.781 106.351 668.625 111.084 658.589Z" fill="white" fill-opacity="0.4"/>
<path d="M93.191 664.939C95.1658 659.168 99.0122 657.624 102.573 659.193C106.134 660.762 108.059 664.849 106.087 670.624C103.258 678.874 98.9959 681.661 95.4287 680.1C91.8704 678.534 90.3734 673.204 93.191 664.939Z" fill="white" fill-opacity="0.4"/>
<path d="M78.6001 674.885C80.2104 670.303 83.2519 669.026 86.0514 670.22C88.8516 671.399 90.3319 674.591 88.727 679.18C86.4306 685.727 83.036 687.987 80.2331 686.805C77.4418 685.621 76.3065 681.437 78.6001 674.885Z" fill="white" fill-opacity="0.4"/>
<path d="M602.252 281.275C586.945 321.575 527.736 294.192 538.241 328.762C548.754 363.346 582.918 355.653 624.112 343.019C665.303 330.381 690.188 292.117 679.675 257.527C669.166 222.953 622.509 227.945 602.252 281.275Z" fill="white" fill-opacity="0.4"/>
<path d="M691.285 225.72C699.597 218.7 698.885 209.643 693 202.703C687.116 195.763 678.286 193.572 669.978 200.595C658.084 210.646 657.014 221.204 662.899 228.144C668.78 235.087 679.395 235.773 691.285 225.72Z" fill="white" fill-opacity="0.4"/>
<path d="M703.122 250.909C709.618 246.896 710.177 240.593 706.948 235.235C703.729 229.873 697.948 227.492 691.449 231.508C682.165 237.244 680.206 244.409 683.431 249.764C686.656 255.119 693.839 256.651 703.122 250.909Z" fill="white" fill-opacity="0.4"/>
<path d="M706.177 274.304C712.547 271.243 713.892 265.523 711.723 260.317C709.546 255.106 704.683 252.373 698.309 255.431C689.196 259.807 686.485 266.173 688.652 271.389C690.821 276.595 697.062 278.673 706.177 274.304Z" fill="white" fill-opacity="0.4"/>
<path d="M698.488 295.463C703.728 293.81 705.34 289.48 704.157 285.144C702.988 280.806 699.484 278.097 694.244 279.749C686.756 282.119 684.02 286.798 685.196 291.142C686.362 295.477 690.997 297.83 698.488 295.463Z" fill="white" fill-opacity="0.4"/>
<path d="M690.819 311.221C695.215 310.067 696.392 306.517 695.204 302.839C694.012 299.158 690.911 296.752 686.507 297.899C680.22 299.553 678.11 303.344 679.288 307.026C680.472 310.701 684.534 312.871 690.819 311.221Z" fill="white" fill-opacity="0.4"/>
</svg>
