<svg width="581" height="611" viewBox="0 0 581 611" fill="none" xmlns="http://www.w3.org/2000/svg">
<path d="M37.0238 128.184C26.8616 173.749 97.1263 183.923 66.8854 209.047C36.6509 234.175 10.1392 207.008 -19.7991 171.214C-49.7474 135.423 -49.5065 86.0326 -19.2641 60.9134C10.9689 35.7811 50.4546 67.8721 37.0238 128.184Z" fill="white" fill-opacity="0.4"/>
<path d="M-10.1232 26.3986C-13.4619 15.1913 -7.81032 7.55604 1.16647 4.90433C10.1356 2.24444 19.036 5.55523 22.3652 16.7653C27.1353 32.804 22.2059 42.8425 13.2382 45.5072C4.27049 48.1719 -5.36107 42.4449 -10.1232 26.3986Z" fill="white" fill-opacity="0.4"/>
<path d="M231.005 509.936C244.15 554.731 310.57 529.649 296.254 566.266C281.946 602.883 245.602 591.929 202.085 575.082C158.561 558.242 134.882 514.897 149.201 478.284C163.506 441.664 213.587 450.652 231.005 509.936Z" fill="white" fill-opacity="0.4"/>
<path d="M140.507 443.654C132.164 435.46 133.417 426.044 139.992 419.381C146.555 412.714 155.946 411.307 164.283 419.508C176.215 431.238 176.757 442.409 170.197 449.079C163.637 455.749 152.437 455.395 140.507 443.654Z" fill="white" fill-opacity="0.4"/>
<path d="M124.487 469.164C117.393 463.999 117.186 456.886 121.199 451.207C125.197 445.527 131.909 443.443 138.996 448.608C149.136 455.996 150.875 464.222 146.866 469.898C142.853 475.57 134.623 476.548 124.487 469.164Z" fill="white" fill-opacity="0.4"/>
<path d="M118.812 495.62C112.132 491.968 111.258 485.72 114.205 480.222C117.151 474.724 122.788 472.058 129.475 475.718C139.028 480.949 141.336 487.976 138.389 493.474C135.442 498.972 128.36 500.855 118.812 495.62Z" fill="white" fill-opacity="0.4"/>
<path d="M123.931 517.781C118.394 515.717 117.118 510.966 118.877 506.343C120.637 501.719 124.763 498.978 130.303 501.038C138.218 503.997 140.687 509.18 138.935 513.81C137.18 518.43 131.861 520.725 123.931 517.781Z" fill="white" fill-opacity="0.4"/>
<path d="M132.78 535.495C128.386 533.803 127.322 530.05 128.666 526.419C129.995 522.787 133.217 520.675 137.617 522.36C143.896 524.773 145.901 528.898 144.568 532.533C143.235 536.154 139.062 537.905 132.78 535.495Z" fill="white" fill-opacity="0.4"/>
<path d="M202.143 238.087C239.514 265.552 194.09 319.048 232.95 318.106C271.824 317.16 273.681 279.532 272.438 233.194C271.191 186.858 238.686 150.052 199.804 150.997C160.94 151.941 152.69 201.742 202.143 238.087Z" fill="white" fill-opacity="0.4"/>
<path d="M170.176 129.809C165.291 119.173 155.697 117.305 146.81 121.408C137.923 125.511 133.111 134.033 138.001 144.667C144.997 159.888 155.634 164.035 164.521 159.932C173.411 155.833 177.176 145.027 170.176 129.809Z" fill="white" fill-opacity="0.4"/>
<path d="M199.691 124.787C197.401 116.898 191.028 114.505 184.545 116.31C178.06 118.105 173.928 123.412 176.221 131.305C179.495 142.579 186.359 146.672 192.838 144.87C199.318 143.067 202.972 136.062 199.691 124.787Z" fill="white" fill-opacity="0.4"/>
<path d="M224.822 128.352C223.482 120.868 217.94 117.828 211.92 118.578C205.892 119.335 201.659 123.59 202.995 131.077C204.909 141.783 210.728 146.425 216.758 145.68C222.779 144.929 226.729 139.057 224.822 128.352Z" fill="white" fill-opacity="0.4"/>
<path d="M244.544 142.412C244.339 136.504 240.314 133.588 235.479 133.566C230.645 133.529 226.829 136.383 227.034 142.29C227.336 150.734 231.399 154.916 236.241 154.947C241.07 154.987 244.842 150.858 244.544 142.412Z" fill="white" fill-opacity="0.4"/>
<path d="M258.672 154.896C258.741 150.007 255.4 147.765 251.246 147.938C247.087 148.115 243.7 150.636 243.622 155.532C243.527 162.526 246.851 165.804 251.006 165.642C255.156 165.472 258.574 161.885 258.672 154.896Z" fill="white" fill-opacity="0.4"/>
<path d="M463.367 606.535C504.089 628.728 466.267 687.843 504.647 681.688C543.042 675.527 539.825 637.99 532.366 592.239C524.904 546.492 487.748 514.387 449.346 520.549C410.962 526.707 409.478 577.165 463.367 606.535Z" fill="white" fill-opacity="0.4"/>
<path d="M417.139 503.535C410.868 493.652 401.111 493.09 392.856 498.35C384.601 503.61 380.978 512.701 387.252 522.581C396.23 536.724 407.328 539.405 415.583 534.144C423.841 528.888 426.121 517.674 417.139 503.535Z" fill="white" fill-opacity="0.4"/>
<path d="M445.712 494.592C442.383 487.083 435.746 485.568 429.564 488.228C423.379 490.878 419.999 496.692 423.331 504.205C428.09 514.937 435.442 518.07 441.62 515.413C447.799 512.757 450.478 505.324 445.712 494.592Z" fill="white" fill-opacity="0.4"/>
<path d="M471.094 494.747C468.761 487.511 462.86 485.243 456.995 486.796C451.123 488.356 447.502 493.141 449.832 500.381C453.166 510.733 459.557 514.55 465.432 513.002C471.297 511.449 474.422 505.099 471.094 494.747Z" fill="white" fill-opacity="0.4"/>
<path d="M492.527 506.029C491.53 500.203 487.15 497.854 482.355 498.482C477.561 499.095 474.163 502.436 475.16 508.262C476.594 516.589 481.182 520.187 485.984 519.567C490.774 518.957 493.958 514.359 492.527 506.029Z" fill="white" fill-opacity="0.4"/>
<path d="M508.205 516.502C507.616 511.648 504.004 509.875 499.91 510.605C495.813 511.339 492.796 514.293 493.376 519.155C494.222 526.097 497.956 528.899 502.052 528.181C506.141 527.454 509.047 523.441 508.205 516.502Z" fill="white" fill-opacity="0.4"/>
</svg>
