<svg width="256" height="256" viewBox="0 0 256 256" fill="none" xmlns="http://www.w3.org/2000/svg">
<path d="M208.534 127.906C208.534 83.2609 172.342 47.0679 127.696 47.0679C83.051 47.0679 46.8584 83.2605 46.8584 127.906C46.8584 172.551 83.0514 208.744 127.696 208.744C172.341 208.744 208.534 172.551 208.534 127.906Z" fill="#ECF0F1"/>
<path d="M127.696 195.81C90.2517 195.81 59.792 165.35 59.792 127.907C59.792 90.4626 90.2517 60.0029 127.696 60.0029C165.139 60.0029 195.599 90.4626 195.599 127.907C195.599 165.35 165.14 195.81 127.696 195.81Z" fill="white"/>
<path d="M146.908 34.1341H108.485C106.593 34.1341 105.061 32.6015 105.061 30.7129V24.6214C105.061 22.7331 106.593 21.2002 108.485 21.2002H146.908C148.8 21.2002 150.33 22.7328 150.33 24.6214V30.7133C150.33 32.6015 148.8 34.1341 146.908 34.1341Z" fill="#D1D4D1"/>
<path d="M203.291 70.9276L190.358 57.9937C187.68 55.3165 187.68 50.9704 190.358 48.2931C193.035 45.6158 197.381 45.6158 200.058 48.2931L212.992 61.227C215.669 63.9043 215.669 68.2504 212.992 70.9276C210.314 73.6049 205.969 73.6049 203.291 70.9276Z" fill="#D1D4D1"/>
<path d="M51.7086 71.3197L64.6425 58.3858C67.3197 55.7086 67.3197 51.3624 64.6425 48.6852C61.9652 46.0079 57.6191 46.0079 54.9419 48.6852L42.0079 61.6191C39.3307 64.2964 39.3307 68.6425 42.0079 71.3197C44.6856 73.997 49.0313 73.997 51.7086 71.3197Z" fill="#D1D4D1"/>
<path d="M73.8688 67.6129L64.6436 58.3877L53.3262 69.7051L63.0235 79.4025C66.241 75.1208 69.882 71.1762 73.8688 67.6129Z" fill="#ECF0F1"/>
<path d="M127.695 47.0686C130.98 47.0686 134.213 47.2883 137.395 47.6667V34.1343H117.994V47.6664C121.176 47.2883 124.41 47.0686 127.695 47.0686Z" fill="#ECF0F1"/>
<path d="M192.367 79.4028L202.067 69.7022L190.75 58.3848L181.521 67.6132C185.512 71.1766 189.149 75.1216 192.367 79.4028Z" fill="#ECF0F1"/>
<path d="M173.294 77.7358L164.279 86.7508C163.018 88.0119 163.018 90.0588 164.279 91.3229C164.913 91.9533 165.74 92.2701 166.565 92.2701C167.393 92.2701 168.221 91.9533 168.851 91.3229L177.866 82.308C176.414 80.7109 174.891 79.1878 173.294 77.7358Z" fill="#D1D4D1"/>
<path d="M195.436 124.673H182.667C180.879 124.673 179.434 126.122 179.434 127.907C179.434 129.691 180.879 131.14 182.667 131.14H195.436C195.488 130.06 195.601 129 195.601 127.907C195.601 126.813 195.488 125.753 195.436 124.673Z" fill="#D1D4D1"/>
<path d="M177.866 173.504L168.851 164.489C167.59 163.228 165.543 163.228 164.279 164.489C163.018 165.753 163.018 167.8 164.279 169.061L173.294 178.076C174.891 176.624 176.414 175.101 177.866 173.504Z" fill="#D1D4D1"/>
<path d="M127.696 60.0024C126.603 60.0024 125.542 60.1156 124.462 60.1673V72.9364C124.462 74.7213 125.911 76.17 127.696 76.17C129.481 76.17 130.929 74.7213 130.929 72.9364V60.1673C129.849 60.1156 128.789 60.0024 127.696 60.0024Z" fill="#D1D4D1"/>
<path d="M127.696 179.643C125.911 179.643 124.462 181.091 124.462 182.876V195.645C125.542 195.697 126.603 195.81 127.696 195.81C128.789 195.81 129.849 195.697 130.929 195.645V182.876C130.929 181.091 129.481 179.643 127.696 179.643Z" fill="#D1D4D1"/>
<path d="M86.5403 164.49L77.5254 173.505C78.9803 175.099 80.5034 176.626 82.0975 178.077L91.1124 169.062C92.3769 167.798 92.3769 165.754 91.1124 164.49C89.848 163.226 87.8044 163.226 86.5403 164.49Z" fill="#D1D4D1"/>
<path d="M59.9568 131.14H72.7259C74.5142 131.14 75.9596 129.691 75.9596 127.906C75.9596 126.121 74.5142 124.672 72.7259 124.672H59.9568C59.9052 125.752 59.792 126.813 59.792 127.906C59.792 128.999 59.9048 130.06 59.9568 131.14Z" fill="#D1D4D1"/>
<path d="M77.5254 82.3084L86.5403 91.3234C87.1707 91.9537 87.9985 92.2706 88.8264 92.2706C89.6542 92.2706 90.4787 91.9537 91.1124 91.3234C92.3736 90.0589 92.3736 88.0124 91.1124 86.7512L82.0975 77.7363C80.5004 79.1883 78.9774 80.711 77.5254 82.3084Z" fill="#D1D4D1"/>
<path d="M93.7079 62.5477L100.321 66.1273C100.503 66.2269 100.719 66.286 100.949 66.286C101.666 66.286 102.247 65.7189 102.247 65.0202C102.247 64.5459 101.98 64.1325 101.584 63.9164L101.577 63.9131L96.3288 61.0726L100.5 58.7234C100.899 58.5023 101.166 58.0905 101.166 57.6179C101.166 56.9192 100.584 56.3521 99.8682 56.3521C99.6226 56.3521 99.3925 56.4196 99.197 56.5344L99.2022 56.531L95.0348 58.8769L95.1299 53.0257C95.1299 53.0206 95.1299 53.0138 95.1299 53.0071C95.1299 52.3151 94.5608 51.7514 93.8533 51.7396H93.8515C93.1596 51.7903 92.6077 52.3151 92.5351 52.9801V52.9868L92.4157 60.352L83.92 65.1366V55.569L90.4038 51.7801C90.7844 51.5557 91.0352 51.1523 91.0352 50.6932C91.0352 49.9945 90.454 49.4275 89.7378 49.4275C89.4921 49.4275 89.2603 49.495 89.0648 49.6114L89.07 49.608L83.92 52.6172V47.922C83.92 47.2233 83.3388 46.6562 82.6226 46.6562C81.9064 46.6562 81.3251 47.2233 81.3251 47.922V52.6206L76.182 49.6064C75.9918 49.495 75.7634 49.4292 75.5195 49.4292C74.8033 49.4292 74.2238 49.9962 74.2238 50.6932C74.2238 51.1489 74.4712 51.5489 74.8431 51.7717L74.8483 51.7751L81.3251 55.5707V65.1366L72.8329 60.3537L72.7118 52.9801C72.7118 52.97 72.7118 52.9598 72.7118 52.948C72.7118 52.2763 72.153 51.7312 71.4645 51.7312C71.4403 51.7312 71.4144 51.7312 71.3901 51.7329H71.3936C70.6861 51.7447 70.1169 52.3067 70.1169 52.9987C70.1169 53.0054 70.1169 53.0122 70.1169 53.0189V53.0172L70.2138 58.8752L66.0447 56.5276C65.863 56.4264 65.6451 56.3673 65.4132 56.3673C64.6971 56.3673 64.1158 56.9344 64.1158 57.6331C64.1158 58.0921 64.3666 58.4938 64.742 58.7166L64.7472 58.72L68.9164 61.0676L63.6729 63.9046C63.2716 64.124 63.0035 64.5375 63.0035 65.0117C63.0035 65.7105 63.5847 66.2775 64.3009 66.2775C64.531 66.2775 64.749 66.2185 64.9358 66.1155L64.9289 66.1189L71.5372 62.5443L80.0277 67.3273L71.5355 72.1102L64.9289 68.5272C64.7472 68.4277 64.5293 68.3686 64.2992 68.3686C63.5813 68.3686 63 68.9357 63 69.6361C63 70.1103 63.2664 70.5238 63.6626 70.7398L63.6695 70.7432L68.9146 73.5887L64.749 75.9346C64.358 76.1574 64.1002 76.5658 64.1002 77.0316C64.1002 77.732 64.6815 78.2991 65.3994 78.2991C65.6381 78.2974 65.863 78.2366 66.0551 78.1269L66.0481 78.1303L70.2155 75.7827L70.1117 81.6306C70.1117 81.6373 70.1117 81.6441 70.1117 81.6508C70.1117 82.3428 70.6791 82.9065 71.3867 82.92H71.4092C72.1167 82.92 72.6928 82.3664 72.7066 81.6779L72.8381 74.3043L81.332 69.5196V79.0822L74.8483 82.8812C74.466 83.1057 74.2134 83.509 74.2134 83.9698C74.2134 84.6685 74.7946 85.2339 75.5091 85.2339C75.7582 85.2339 75.99 85.1647 76.1872 85.0465L76.182 85.0499L81.332 82.0323V86.7342C81.332 87.4329 81.9133 88 82.6295 88C83.3457 88 83.9269 87.4329 83.9269 86.7342V82.0407L89.07 85.0465C89.262 85.1613 89.4938 85.2288 89.7412 85.2288C90.4574 85.2288 91.0369 84.6617 91.0369 83.9647C91.0369 83.5056 90.7861 83.1023 90.409 82.8812L90.4038 82.8778L83.9269 79.0906V69.5179L92.4174 74.3009L92.5506 81.6779C92.5645 82.3664 93.1405 82.92 93.8481 82.92H93.8723C94.5781 82.9065 95.1455 82.3445 95.1455 81.6542C95.1455 81.6458 95.1455 81.639 95.1455 81.6306V81.6323L95.04 75.7793L99.2091 78.1286C99.3942 78.2349 99.6191 78.2974 99.8561 78.2974C100.335 78.2974 100.752 78.0459 100.979 77.6712L100.982 77.6645C101.091 77.4822 101.155 77.2645 101.155 77.0316C101.155 76.5641 100.896 76.1574 100.512 75.938L100.505 75.9346L96.3409 73.5887L101.583 70.7449C101.986 70.5238 102.254 70.1103 102.254 69.6361C102.254 68.9357 101.673 68.3686 100.955 68.3686C100.721 68.3686 100.503 68.4294 100.313 68.534L100.32 68.5306L93.7183 72.1102L85.2244 67.3273L93.7079 62.5477ZM107.767 45.8124C108.483 45.8124 109.065 45.2453 109.065 44.5466C109.065 43.8479 108.483 43.2808 107.767 43.2808H103.652V39.2658C103.652 38.5671 103.07 38 102.354 38C101.638 38 101.057 38.5671 101.057 39.2658V43.2808H96.9412C96.225 43.2808 95.6437 43.8479 95.6437 44.5466C95.6437 45.2453 96.225 45.8124 96.9412 45.8124H101.057V49.8274C101.057 50.5262 101.638 51.0932 102.354 51.0932C103.07 51.0932 103.652 50.5262 103.652 49.8274V45.8124H107.767ZM112.069 57.2989L113.618 55.7867C113.849 55.5572 113.995 55.2433 113.995 54.8956C113.995 54.1952 113.414 53.6282 112.696 53.6282C112.338 53.6282 112.014 53.7682 111.781 53.9978L110.232 55.5083L108.684 53.9978C108.449 53.7666 108.122 53.6231 107.762 53.6231C107.044 53.6231 106.463 54.1902 106.463 54.8906C106.463 55.2416 106.61 55.5589 106.845 55.7884L108.395 57.3006L106.847 58.8128C106.611 59.0423 106.468 59.3579 106.468 59.7073C106.468 60.4077 107.049 60.9748 107.767 60.9748C108.127 60.9748 108.45 60.833 108.686 60.6035L110.234 59.093L111.782 60.6035C112.018 60.833 112.343 60.9748 112.701 60.9748C113.419 60.9748 114 60.4077 114 59.7073C114 59.3579 113.855 59.0406 113.621 58.8128L112.069 57.2989Z" fill="#4AE9FF"/>
<path d="M93.7079 62.5477L100.321 66.1273C100.503 66.2269 100.719 66.286 100.949 66.286C101.666 66.286 102.247 65.7189 102.247 65.0202C102.247 64.5459 101.98 64.1325 101.584 63.9164L101.577 63.9131L96.3288 61.0726L100.5 58.7234C100.899 58.5023 101.166 58.0905 101.166 57.6179C101.166 56.9192 100.584 56.3521 99.8682 56.3521C99.6226 56.3521 99.3925 56.4196 99.197 56.5344L99.2022 56.531L95.0348 58.8769L95.1299 53.0257C95.1299 53.0206 95.1299 53.0138 95.1299 53.0071C95.1299 52.3151 94.5608 51.7514 93.8533 51.7396H93.8515C93.1596 51.7903 92.6077 52.3151 92.5351 52.9801V52.9868L92.4157 60.352L83.92 65.1366V55.569L90.4038 51.7801C90.7844 51.5557 91.0352 51.1523 91.0352 50.6932C91.0352 49.9945 90.454 49.4275 89.7378 49.4275C89.4921 49.4275 89.2603 49.495 89.0648 49.6114L89.07 49.608L83.92 52.6172V47.922C83.92 47.2233 83.3388 46.6562 82.6226 46.6562C81.9064 46.6562 81.3251 47.2233 81.3251 47.922V52.6206L76.182 49.6064C75.9918 49.495 75.7634 49.4292 75.5195 49.4292C74.8033 49.4292 74.2238 49.9962 74.2238 50.6932C74.2238 51.1489 74.4712 51.5489 74.8431 51.7717L74.8483 51.7751L81.3251 55.5707V65.1366L72.8329 60.3537L72.7118 52.9801C72.7118 52.97 72.7118 52.9598 72.7118 52.948C72.7118 52.2763 72.153 51.7312 71.4645 51.7312C71.4403 51.7312 71.4144 51.7312 71.3901 51.7329H71.3936C70.6861 51.7447 70.1169 52.3067 70.1169 52.9987C70.1169 53.0054 70.1169 53.0122 70.1169 53.0189V53.0172L70.2138 58.8752L66.0447 56.5276C65.863 56.4264 65.6451 56.3673 65.4132 56.3673C64.6971 56.3673 64.1158 56.9344 64.1158 57.6331C64.1158 58.0921 64.3666 58.4938 64.742 58.7166L64.7472 58.72L68.9164 61.0676L63.6729 63.9046C63.2716 64.124 63.0035 64.5375 63.0035 65.0117C63.0035 65.7105 63.5847 66.2775 64.3009 66.2775C64.531 66.2775 64.749 66.2185 64.9358 66.1155L64.9289 66.1189L71.5372 62.5443L80.0277 67.3273L71.5355 72.1102L64.9289 68.5272C64.7472 68.4277 64.5293 68.3686 64.2992 68.3686C63.5813 68.3686 63 68.9357 63 69.6361C63 70.1103 63.2664 70.5238 63.6626 70.7398L63.6695 70.7432L68.9146 73.5887L64.749 75.9346C64.358 76.1574 64.1002 76.5658 64.1002 77.0316C64.1002 77.732 64.6815 78.2991 65.3994 78.2991C65.6381 78.2974 65.863 78.2366 66.0551 78.1269L66.0481 78.1303L70.2155 75.7827L70.1117 81.6306C70.1117 81.6373 70.1117 81.6441 70.1117 81.6508C70.1117 82.3428 70.6791 82.9065 71.3867 82.92H71.4092C72.1167 82.92 72.6928 82.3664 72.7066 81.6779L72.8381 74.3043L81.332 69.5196V79.0822L74.8483 82.8812C74.466 83.1057 74.2134 83.509 74.2134 83.9698C74.2134 84.6685 74.7946 85.2339 75.5091 85.2339C75.7582 85.2339 75.99 85.1647 76.1872 85.0465L76.182 85.0499L81.332 82.0323V86.7342C81.332 87.4329 81.9133 88 82.6295 88C83.3457 88 83.9269 87.4329 83.9269 86.7342V82.0407L89.07 85.0465C89.262 85.1613 89.4938 85.2288 89.7412 85.2288C90.4574 85.2288 91.0369 84.6617 91.0369 83.9647C91.0369 83.5056 90.7861 83.1023 90.409 82.8812L90.4038 82.8778L83.9269 79.0906V69.5179L92.4174 74.3009L92.5506 81.6779C92.5645 82.3664 93.1405 82.92 93.8481 82.92H93.8723C94.5781 82.9065 95.1455 82.3445 95.1455 81.6542C95.1455 81.6458 95.1455 81.639 95.1455 81.6306V81.6323L95.04 75.7793L99.2091 78.1286C99.3942 78.2349 99.6191 78.2974 99.8561 78.2974C100.335 78.2974 100.752 78.0459 100.979 77.6712L100.982 77.6645C101.091 77.4822 101.155 77.2645 101.155 77.0316C101.155 76.5641 100.896 76.1574 100.512 75.938L100.505 75.9346L96.3409 73.5887L101.583 70.7449C101.986 70.5238 102.254 70.1103 102.254 69.6361C102.254 68.9357 101.673 68.3686 100.955 68.3686C100.721 68.3686 100.503 68.4294 100.313 68.534L100.32 68.5306L93.7183 72.1102L85.2244 67.3273L93.7079 62.5477ZM107.767 45.8124C108.483 45.8124 109.065 45.2453 109.065 44.5466C109.065 43.8479 108.483 43.2808 107.767 43.2808H103.652V39.2658C103.652 38.5671 103.07 38 102.354 38C101.638 38 101.057 38.5671 101.057 39.2658V43.2808H96.9412C96.225 43.2808 95.6437 43.8479 95.6437 44.5466C95.6437 45.2453 96.225 45.8124 96.9412 45.8124H101.057V49.8274C101.057 50.5262 101.638 51.0932 102.354 51.0932C103.07 51.0932 103.652 50.5262 103.652 49.8274V45.8124H107.767ZM112.069 57.2989L113.618 55.7867C113.849 55.5572 113.995 55.2433 113.995 54.8956C113.995 54.1952 113.414 53.6282 112.696 53.6282C112.338 53.6282 112.014 53.7682 111.781 53.9978L110.232 55.5083L108.684 53.9978C108.449 53.7666 108.122 53.6231 107.762 53.6231C107.044 53.6231 106.463 54.1902 106.463 54.8906C106.463 55.2416 106.61 55.5589 106.845 55.7884L108.395 57.3006L106.847 58.8128C106.611 59.0423 106.468 59.3579 106.468 59.7073C106.468 60.4077 107.049 60.9748 107.767 60.9748C108.127 60.9748 108.45 60.833 108.686 60.6035L110.234 59.093L111.782 60.6035C112.018 60.833 112.343 60.9748 112.701 60.9748C113.419 60.9748 114 60.4077 114 59.7073C114 59.3579 113.855 59.0406 113.621 58.8128L112.069 57.2989Z" fill="#4AE9FF"/>
<path d="M93.7079 62.5477L100.321 66.1273C100.503 66.2269 100.719 66.286 100.949 66.286C101.666 66.286 102.247 65.7189 102.247 65.0202C102.247 64.5459 101.98 64.1325 101.584 63.9164L101.577 63.9131L96.3288 61.0726L100.5 58.7234C100.899 58.5023 101.166 58.0905 101.166 57.6179C101.166 56.9192 100.584 56.3521 99.8682 56.3521C99.6226 56.3521 99.3925 56.4196 99.197 56.5344L99.2022 56.531L95.0348 58.8769L95.1299 53.0257C95.1299 53.0206 95.1299 53.0138 95.1299 53.0071C95.1299 52.3151 94.5608 51.7514 93.8533 51.7396H93.8515C93.1596 51.7903 92.6077 52.3151 92.5351 52.9801V52.9868L92.4157 60.352L83.92 65.1366V55.569L90.4038 51.7801C90.7844 51.5557 91.0352 51.1523 91.0352 50.6932C91.0352 49.9945 90.454 49.4275 89.7378 49.4275C89.4921 49.4275 89.2603 49.495 89.0648 49.6114L89.07 49.608L83.92 52.6172V47.922C83.92 47.2233 83.3388 46.6562 82.6226 46.6562C81.9064 46.6562 81.3251 47.2233 81.3251 47.922V52.6206L76.182 49.6064C75.9918 49.495 75.7634 49.4292 75.5195 49.4292C74.8033 49.4292 74.2238 49.9962 74.2238 50.6932C74.2238 51.1489 74.4712 51.5489 74.8431 51.7717L74.8483 51.7751L81.3251 55.5707V65.1366L72.8329 60.3537L72.7118 52.9801C72.7118 52.97 72.7118 52.9598 72.7118 52.948C72.7118 52.2763 72.153 51.7312 71.4645 51.7312C71.4403 51.7312 71.4144 51.7312 71.3901 51.7329H71.3936C70.6861 51.7447 70.1169 52.3067 70.1169 52.9987C70.1169 53.0054 70.1169 53.0122 70.1169 53.0189V53.0172L70.2138 58.8752L66.0447 56.5276C65.863 56.4264 65.6451 56.3673 65.4132 56.3673C64.6971 56.3673 64.1158 56.9344 64.1158 57.6331C64.1158 58.0921 64.3666 58.4938 64.742 58.7166L64.7472 58.72L68.9164 61.0676L63.6729 63.9046C63.2716 64.124 63.0035 64.5375 63.0035 65.0117C63.0035 65.7105 63.5847 66.2775 64.3009 66.2775C64.531 66.2775 64.749 66.2185 64.9358 66.1155L64.9289 66.1189L71.5372 62.5443L80.0277 67.3273L71.5355 72.1102L64.9289 68.5272C64.7472 68.4277 64.5293 68.3686 64.2992 68.3686C63.5813 68.3686 63 68.9357 63 69.6361C63 70.1103 63.2664 70.5238 63.6626 70.7398L63.6695 70.7432L68.9146 73.5887L64.749 75.9346C64.358 76.1574 64.1002 76.5658 64.1002 77.0316C64.1002 77.732 64.6815 78.2991 65.3994 78.2991C65.6381 78.2974 65.863 78.2366 66.0551 78.1269L66.0481 78.1303L70.2155 75.7827L70.1117 81.6306C70.1117 81.6373 70.1117 81.6441 70.1117 81.6508C70.1117 82.3428 70.6791 82.9065 71.3867 82.92H71.4092C72.1167 82.92 72.6928 82.3664 72.7066 81.6779L72.8381 74.3043L81.332 69.5196V79.0822L74.8483 82.8812C74.466 83.1057 74.2134 83.509 74.2134 83.9698C74.2134 84.6685 74.7946 85.2339 75.5091 85.2339C75.7582 85.2339 75.99 85.1647 76.1872 85.0465L76.182 85.0499L81.332 82.0323V86.7342C81.332 87.4329 81.9133 88 82.6295 88C83.3457 88 83.9269 87.4329 83.9269 86.7342V82.0407L89.07 85.0465C89.262 85.1613 89.4938 85.2288 89.7412 85.2288C90.4574 85.2288 91.0369 84.6617 91.0369 83.9647C91.0369 83.5056 90.7861 83.1023 90.409 82.8812L90.4038 82.8778L83.9269 79.0906V69.5179L92.4174 74.3009L92.5506 81.6779C92.5645 82.3664 93.1405 82.92 93.8481 82.92H93.8723C94.5781 82.9065 95.1455 82.3445 95.1455 81.6542C95.1455 81.6458 95.1455 81.639 95.1455 81.6306V81.6323L95.04 75.7793L99.2091 78.1286C99.3942 78.2349 99.6191 78.2974 99.8561 78.2974C100.335 78.2974 100.752 78.0459 100.979 77.6712L100.982 77.6645C101.091 77.4822 101.155 77.2645 101.155 77.0316C101.155 76.5641 100.896 76.1574 100.512 75.938L100.505 75.9346L96.3409 73.5887L101.583 70.7449C101.986 70.5238 102.254 70.1103 102.254 69.6361C102.254 68.9357 101.673 68.3686 100.955 68.3686C100.721 68.3686 100.503 68.4294 100.313 68.534L100.32 68.5306L93.7183 72.1102L85.2244 67.3273L93.7079 62.5477ZM107.767 45.8124C108.483 45.8124 109.065 45.2453 109.065 44.5466C109.065 43.8479 108.483 43.2808 107.767 43.2808H103.652V39.2658C103.652 38.5671 103.07 38 102.354 38C101.638 38 101.057 38.5671 101.057 39.2658V43.2808H96.9412C96.225 43.2808 95.6437 43.8479 95.6437 44.5466C95.6437 45.2453 96.225 45.8124 96.9412 45.8124H101.057V49.8274C101.057 50.5262 101.638 51.0932 102.354 51.0932C103.07 51.0932 103.652 50.5262 103.652 49.8274V45.8124H107.767ZM112.069 57.2989L113.618 55.7867C113.849 55.5572 113.995 55.2433 113.995 54.8956C113.995 54.1952 113.414 53.6282 112.696 53.6282C112.338 53.6282 112.014 53.7682 111.781 53.9978L110.232 55.5083L108.684 53.9978C108.449 53.7666 108.122 53.6231 107.762 53.6231C107.044 53.6231 106.463 54.1902 106.463 54.8906C106.463 55.2416 106.61 55.5589 106.845 55.7884L108.395 57.3006L106.847 58.8128C106.611 59.0423 106.468 59.3579 106.468 59.7073C106.468 60.4077 107.049 60.9748 107.767 60.9748C108.127 60.9748 108.45 60.833 108.686 60.6035L110.234 59.093L111.782 60.6035C112.018 60.833 112.343 60.9748 112.701 60.9748C113.419 60.9748 114 60.4077 114 59.7073C114 59.3579 113.855 59.0406 113.621 58.8128L112.069 57.2989Z" fill="#00E0FF"/>
<path d="M163.218 184.706L152.066 179.121C151.759 178.966 151.395 178.874 151.007 178.874C149.799 178.874 148.819 179.759 148.819 180.849C148.819 181.588 149.268 182.233 149.936 182.57L149.948 182.576L158.799 187.007L151.765 190.672C151.091 191.016 150.642 191.659 150.642 192.396C150.642 193.486 151.622 194.371 152.83 194.371C153.244 194.371 153.632 194.265 153.962 194.086L153.953 194.092L160.981 190.432L160.82 199.56C160.82 199.568 160.82 199.578 160.82 199.589C160.82 200.668 161.78 201.548 162.973 201.566H162.976C164.143 201.487 165.073 200.668 165.196 199.631V199.621L165.397 188.131L179.723 180.667V195.592L168.79 201.503C168.148 201.853 167.725 202.482 167.725 203.199C167.725 204.289 168.705 205.173 169.913 205.173C170.327 205.173 170.718 205.068 171.048 204.886L171.039 204.891L179.723 200.197V207.522C179.723 208.612 180.703 209.496 181.911 209.496C183.119 209.496 184.099 208.612 184.099 207.522V200.192L192.771 204.894C193.092 205.068 193.477 205.171 193.889 205.171C195.096 205.171 196.074 204.286 196.074 203.199C196.074 202.488 195.656 201.864 195.029 201.516L195.021 201.511L184.099 195.59V180.667L198.419 188.128L198.623 199.631C198.623 199.647 198.623 199.663 198.623 199.681C198.623 200.729 199.565 201.579 200.726 201.579C200.767 201.579 200.811 201.579 200.852 201.577H200.846C202.039 201.558 202.999 200.682 202.999 199.602C202.999 199.592 202.999 199.581 202.999 199.571V199.573L202.836 190.435L209.866 194.097C210.172 194.255 210.54 194.347 210.931 194.347C212.138 194.347 213.118 193.462 213.118 192.372C213.118 191.656 212.695 191.03 212.062 190.682L212.054 190.677L205.023 187.015L213.865 182.589C214.542 182.247 214.994 181.602 214.994 180.862C214.994 179.772 214.014 178.887 212.806 178.887C212.418 178.887 212.051 178.979 211.736 179.14L211.747 179.135L200.604 184.711L186.287 177.249L200.607 169.788L211.747 175.378C212.054 175.533 212.421 175.625 212.809 175.625C214.02 175.625 215 174.74 215 173.648C215 172.908 214.551 172.263 213.883 171.926L213.871 171.921L205.026 167.482L212.051 163.822C212.71 163.475 213.145 162.837 213.145 162.111C213.145 161.018 212.165 160.133 210.954 160.133C210.551 160.136 210.172 160.231 209.848 160.402L209.86 160.397L202.833 164.059L203.008 154.936C203.008 154.926 203.008 154.915 203.008 154.905C203.008 153.825 202.051 152.946 200.858 152.925H200.82C199.627 152.925 198.655 153.788 198.632 154.863L198.41 166.365L184.087 173.829V158.912L195.021 152.985C195.665 152.635 196.091 152.006 196.091 151.287C196.091 150.197 195.111 149.315 193.906 149.315C193.486 149.315 193.095 149.423 192.763 149.607L192.771 149.602L184.087 154.31V146.975C184.087 145.885 183.107 145 181.899 145C180.692 145 179.711 145.885 179.711 146.975V154.296L171.039 149.607C170.715 149.428 170.324 149.323 169.907 149.323C168.699 149.323 167.722 150.208 167.722 151.295C167.722 152.011 168.145 152.64 168.781 152.985L168.79 152.991L179.711 158.899V173.832L165.394 166.371L165.17 154.863C165.146 153.788 164.175 152.925 162.982 152.925H162.941C161.751 152.946 160.794 153.823 160.794 154.899C160.794 154.913 160.794 154.923 160.794 154.936V154.934L160.972 164.064L153.941 160.399C153.629 160.234 153.25 160.136 152.85 160.136C152.042 160.136 151.339 160.528 150.957 161.113L150.951 161.123C150.768 161.408 150.66 161.747 150.66 162.111C150.66 162.84 151.097 163.475 151.745 163.817L151.757 163.822L158.778 167.482L149.939 171.918C149.259 172.263 148.807 172.908 148.807 173.648C148.807 174.74 149.787 175.625 150.998 175.625C151.392 175.625 151.759 175.53 152.08 175.367L152.069 175.372L163.2 169.788L177.524 177.249L163.218 184.706ZM139.51 210.813C138.303 210.813 137.323 211.697 137.323 212.787C137.323 213.877 138.303 214.762 139.51 214.762H146.45V221.025C146.45 222.115 147.43 223 148.638 223C149.846 223 150.826 222.115 150.826 221.025V214.762H157.766C158.974 214.762 159.954 213.877 159.954 212.787C159.954 211.697 158.974 210.813 157.766 210.813H150.826V204.549C150.826 203.459 149.846 202.575 148.638 202.575C147.43 202.575 146.45 203.459 146.45 204.549V210.813H139.51ZM132.256 192.894L129.645 195.253C129.254 195.611 129.009 196.1 129.009 196.643C129.009 197.735 129.989 198.62 131.2 198.62C131.803 198.62 132.349 198.402 132.743 198.043L135.354 195.687L137.964 198.043C138.361 198.404 138.912 198.628 139.519 198.628C140.73 198.628 141.71 197.743 141.71 196.651C141.71 196.103 141.462 195.608 141.065 195.25L138.452 192.891L141.062 190.532C141.459 190.174 141.701 189.682 141.701 189.137C141.701 188.044 140.721 187.159 139.51 187.159C138.904 187.159 138.358 187.381 137.961 187.739L135.351 190.095L132.74 187.739C132.343 187.381 131.795 187.159 131.191 187.159C129.98 187.159 129 188.044 129 189.137C129 189.682 129.245 190.177 129.639 190.532L132.256 192.894Z" fill="#4AE9FF"/>
<path d="M163.218 184.706L152.066 179.121C151.759 178.966 151.395 178.874 151.007 178.874C149.799 178.874 148.819 179.759 148.819 180.849C148.819 181.588 149.268 182.233 149.936 182.57L149.948 182.576L158.799 187.007L151.765 190.672C151.091 191.016 150.642 191.659 150.642 192.396C150.642 193.486 151.622 194.371 152.83 194.371C153.244 194.371 153.632 194.265 153.962 194.086L153.953 194.092L160.981 190.432L160.82 199.56C160.82 199.568 160.82 199.578 160.82 199.589C160.82 200.668 161.78 201.548 162.973 201.566H162.976C164.143 201.487 165.073 200.668 165.196 199.631V199.621L165.397 188.131L179.723 180.667V195.592L168.79 201.503C168.148 201.853 167.725 202.482 167.725 203.199C167.725 204.289 168.705 205.173 169.913 205.173C170.327 205.173 170.718 205.068 171.048 204.886L171.039 204.891L179.723 200.197V207.522C179.723 208.612 180.703 209.496 181.911 209.496C183.119 209.496 184.099 208.612 184.099 207.522V200.192L192.771 204.894C193.092 205.068 193.477 205.171 193.889 205.171C195.096 205.171 196.074 204.286 196.074 203.199C196.074 202.488 195.656 201.864 195.029 201.516L195.021 201.511L184.099 195.59V180.667L198.419 188.128L198.623 199.631C198.623 199.647 198.623 199.663 198.623 199.681C198.623 200.729 199.565 201.579 200.726 201.579C200.767 201.579 200.811 201.579 200.852 201.577H200.846C202.039 201.558 202.999 200.682 202.999 199.602C202.999 199.592 202.999 199.581 202.999 199.571V199.573L202.836 190.435L209.866 194.097C210.172 194.255 210.54 194.347 210.931 194.347C212.138 194.347 213.118 193.462 213.118 192.372C213.118 191.656 212.695 191.03 212.062 190.682L212.054 190.677L205.023 187.015L213.865 182.589C214.542 182.247 214.994 181.602 214.994 180.862C214.994 179.772 214.014 178.887 212.806 178.887C212.418 178.887 212.051 178.979 211.736 179.14L211.747 179.135L200.604 184.711L186.287 177.249L200.607 169.788L211.747 175.378C212.054 175.533 212.421 175.625 212.809 175.625C214.02 175.625 215 174.74 215 173.648C215 172.908 214.551 172.263 213.883 171.926L213.871 171.921L205.026 167.482L212.051 163.822C212.71 163.475 213.145 162.837 213.145 162.111C213.145 161.018 212.165 160.133 210.954 160.133C210.551 160.136 210.172 160.231 209.848 160.402L209.86 160.397L202.833 164.059L203.008 154.936C203.008 154.926 203.008 154.915 203.008 154.905C203.008 153.825 202.051 152.946 200.858 152.925H200.82C199.627 152.925 198.655 153.788 198.632 154.863L198.41 166.365L184.087 173.829V158.912L195.021 152.985C195.665 152.635 196.091 152.006 196.091 151.287C196.091 150.197 195.111 149.315 193.906 149.315C193.486 149.315 193.095 149.423 192.763 149.607L192.771 149.602L184.087 154.31V146.975C184.087 145.885 183.107 145 181.899 145C180.692 145 179.711 145.885 179.711 146.975V154.296L171.039 149.607C170.715 149.428 170.324 149.323 169.907 149.323C168.699 149.323 167.722 150.208 167.722 151.295C167.722 152.011 168.145 152.64 168.781 152.985L168.79 152.991L179.711 158.899V173.832L165.394 166.371L165.17 154.863C165.146 153.788 164.175 152.925 162.982 152.925H162.941C161.751 152.946 160.794 153.823 160.794 154.899C160.794 154.913 160.794 154.923 160.794 154.936V154.934L160.972 164.064L153.941 160.399C153.629 160.234 153.25 160.136 152.85 160.136C152.042 160.136 151.339 160.528 150.957 161.113L150.951 161.123C150.768 161.408 150.66 161.747 150.66 162.111C150.66 162.84 151.097 163.475 151.745 163.817L151.757 163.822L158.778 167.482L149.939 171.918C149.259 172.263 148.807 172.908 148.807 173.648C148.807 174.74 149.787 175.625 150.998 175.625C151.392 175.625 151.759 175.53 152.08 175.367L152.069 175.372L163.2 169.788L177.524 177.249L163.218 184.706ZM139.51 210.813C138.303 210.813 137.323 211.697 137.323 212.787C137.323 213.877 138.303 214.762 139.51 214.762H146.45V221.025C146.45 222.115 147.43 223 148.638 223C149.846 223 150.826 222.115 150.826 221.025V214.762H157.766C158.974 214.762 159.954 213.877 159.954 212.787C159.954 211.697 158.974 210.813 157.766 210.813H150.826V204.549C150.826 203.459 149.846 202.575 148.638 202.575C147.43 202.575 146.45 203.459 146.45 204.549V210.813H139.51ZM132.256 192.894L129.645 195.253C129.254 195.611 129.009 196.1 129.009 196.643C129.009 197.735 129.989 198.62 131.2 198.62C131.803 198.62 132.349 198.402 132.743 198.043L135.354 195.687L137.964 198.043C138.361 198.404 138.912 198.628 139.519 198.628C140.73 198.628 141.71 197.743 141.71 196.651C141.71 196.103 141.462 195.608 141.065 195.25L138.452 192.891L141.062 190.532C141.459 190.174 141.701 189.682 141.701 189.137C141.701 188.044 140.721 187.159 139.51 187.159C138.904 187.159 138.358 187.381 137.961 187.739L135.351 190.095L132.74 187.739C132.343 187.381 131.795 187.159 131.191 187.159C129.98 187.159 129 188.044 129 189.137C129 189.682 129.245 190.177 129.639 190.532L132.256 192.894Z" fill="#4AE9FF"/>
<path d="M163.218 184.706L152.066 179.121C151.759 178.966 151.395 178.874 151.007 178.874C149.799 178.874 148.819 179.759 148.819 180.849C148.819 181.588 149.268 182.233 149.936 182.57L149.948 182.576L158.799 187.007L151.765 190.672C151.091 191.016 150.642 191.659 150.642 192.396C150.642 193.486 151.622 194.371 152.83 194.371C153.244 194.371 153.632 194.265 153.962 194.086L153.953 194.092L160.981 190.432L160.82 199.56C160.82 199.568 160.82 199.578 160.82 199.589C160.82 200.668 161.78 201.548 162.973 201.566H162.976C164.143 201.487 165.073 200.668 165.196 199.631V199.621L165.397 188.131L179.723 180.667V195.592L168.79 201.503C168.148 201.853 167.725 202.482 167.725 203.199C167.725 204.289 168.705 205.173 169.913 205.173C170.327 205.173 170.718 205.068 171.048 204.886L171.039 204.891L179.723 200.197V207.522C179.723 208.612 180.703 209.496 181.911 209.496C183.119 209.496 184.099 208.612 184.099 207.522V200.192L192.771 204.894C193.092 205.068 193.477 205.171 193.889 205.171C195.096 205.171 196.074 204.286 196.074 203.199C196.074 202.488 195.656 201.864 195.029 201.516L195.021 201.511L184.099 195.59V180.667L198.419 188.128L198.623 199.631C198.623 199.647 198.623 199.663 198.623 199.681C198.623 200.729 199.565 201.579 200.726 201.579C200.767 201.579 200.811 201.579 200.852 201.577H200.846C202.039 201.558 202.999 200.682 202.999 199.602C202.999 199.592 202.999 199.581 202.999 199.571V199.573L202.836 190.435L209.866 194.097C210.172 194.255 210.54 194.347 210.931 194.347C212.138 194.347 213.118 193.462 213.118 192.372C213.118 191.656 212.695 191.03 212.062 190.682L212.054 190.677L205.023 187.015L213.865 182.589C214.542 182.247 214.994 181.602 214.994 180.862C214.994 179.772 214.014 178.887 212.806 178.887C212.418 178.887 212.051 178.979 211.736 179.14L211.747 179.135L200.604 184.711L186.287 177.249L200.607 169.788L211.747 175.378C212.054 175.533 212.421 175.625 212.809 175.625C214.02 175.625 215 174.74 215 173.648C215 172.908 214.551 172.263 213.883 171.926L213.871 171.921L205.026 167.482L212.051 163.822C212.71 163.475 213.145 162.837 213.145 162.111C213.145 161.018 212.165 160.133 210.954 160.133C210.551 160.136 210.172 160.231 209.848 160.402L209.86 160.397L202.833 164.059L203.008 154.936C203.008 154.926 203.008 154.915 203.008 154.905C203.008 153.825 202.051 152.946 200.858 152.925H200.82C199.627 152.925 198.655 153.788 198.632 154.863L198.41 166.365L184.087 173.829V158.912L195.021 152.985C195.665 152.635 196.091 152.006 196.091 151.287C196.091 150.197 195.111 149.315 193.906 149.315C193.486 149.315 193.095 149.423 192.763 149.607L192.771 149.602L184.087 154.31V146.975C184.087 145.885 183.107 145 181.899 145C180.692 145 179.711 145.885 179.711 146.975V154.296L171.039 149.607C170.715 149.428 170.324 149.323 169.907 149.323C168.699 149.323 167.722 150.208 167.722 151.295C167.722 152.011 168.145 152.64 168.781 152.985L168.79 152.991L179.711 158.899V173.832L165.394 166.371L165.17 154.863C165.146 153.788 164.175 152.925 162.982 152.925H162.941C161.751 152.946 160.794 153.823 160.794 154.899C160.794 154.913 160.794 154.923 160.794 154.936V154.934L160.972 164.064L153.941 160.399C153.629 160.234 153.25 160.136 152.85 160.136C152.042 160.136 151.339 160.528 150.957 161.113L150.951 161.123C150.768 161.408 150.66 161.747 150.66 162.111C150.66 162.84 151.097 163.475 151.745 163.817L151.757 163.822L158.778 167.482L149.939 171.918C149.259 172.263 148.807 172.908 148.807 173.648C148.807 174.74 149.787 175.625 150.998 175.625C151.392 175.625 151.759 175.53 152.08 175.367L152.069 175.372L163.2 169.788L177.524 177.249L163.218 184.706ZM139.51 210.813C138.303 210.813 137.323 211.697 137.323 212.787C137.323 213.877 138.303 214.762 139.51 214.762H146.45V221.025C146.45 222.115 147.43 223 148.638 223C149.846 223 150.826 222.115 150.826 221.025V214.762H157.766C158.974 214.762 159.954 213.877 159.954 212.787C159.954 211.697 158.974 210.813 157.766 210.813H150.826V204.549C150.826 203.459 149.846 202.575 148.638 202.575C147.43 202.575 146.45 203.459 146.45 204.549V210.813H139.51ZM132.256 192.894L129.645 195.253C129.254 195.611 129.009 196.1 129.009 196.643C129.009 197.735 129.989 198.62 131.2 198.62C131.803 198.62 132.349 198.402 132.743 198.043L135.354 195.687L137.964 198.043C138.361 198.404 138.912 198.628 139.519 198.628C140.73 198.628 141.71 197.743 141.71 196.651C141.71 196.103 141.462 195.608 141.065 195.25L138.452 192.891L141.062 190.532C141.459 190.174 141.701 189.682 141.701 189.137C141.701 188.044 140.721 187.159 139.51 187.159C138.904 187.159 138.358 187.381 137.961 187.739L135.351 190.095L132.74 187.739C132.343 187.381 131.795 187.159 131.191 187.159C129.98 187.159 129 188.044 129 189.137C129 189.682 129.245 190.177 129.639 190.532L132.256 192.894Z" fill="#00E0FF"/>
</svg>
