<svg width="175" height="202" viewBox="0 0 175 202" fill="none" xmlns="http://www.w3.org/2000/svg">
<path d="M168.534 106.706C168.534 62.0609 132.341 25.8679 87.6958 25.8679C43.0505 25.8679 6.85791 62.0605 6.85791 106.706C6.85791 151.351 43.0509 187.544 87.6958 187.544C132.341 187.544 168.534 151.351 168.534 106.706Z" fill="#ECF0F1"/>
<path d="M87.6961 174.61C50.2522 174.61 19.7925 144.15 19.7925 106.706C19.7925 69.2622 50.2522 38.8025 87.6961 38.8025C125.14 38.8025 155.6 69.2622 155.6 106.706C155.6 144.15 125.14 174.61 87.6961 174.61Z" fill="white"/>
<path d="M106.908 12.9339H68.4842C66.5926 12.9339 65.0601 11.4013 65.0601 9.51271V3.42121C65.0601 1.53295 66.5926 0 68.4842 0H106.908C108.799 0 110.329 1.53258 110.329 3.42121V9.51308C110.329 11.4013 108.8 12.9339 106.908 12.9339Z" fill="#D1D4D1"/>
<path d="M163.292 49.7272L150.358 36.7933C147.681 34.116 147.681 29.7699 150.358 27.0927C153.035 24.4154 157.381 24.4154 160.059 27.0927L172.993 40.0266C175.67 42.7038 175.67 47.0499 172.993 49.7272C170.315 52.4045 165.969 52.4045 163.292 49.7272Z" fill="#D1D4D1"/>
<path d="M11.7086 50.1195L24.6425 37.1856C27.3197 34.5084 27.3197 30.1623 24.6425 27.485C21.9652 24.8077 17.6191 24.8077 14.9419 27.485L2.00794 40.4189C-0.669315 43.0962 -0.669315 47.4423 2.00794 50.1195C4.68557 52.7968 9.03131 52.7968 11.7086 50.1195Z" fill="#D1D4D1"/>
<path d="M33.8693 46.4122L24.6441 37.187L13.3267 48.5045L23.024 58.2018C26.2415 53.9202 29.8825 49.9755 33.8693 46.4122Z" fill="#ECF0F1"/>
<path d="M87.6957 25.8681C90.9811 25.8681 94.2143 26.0879 97.3964 26.4663V12.9338H77.9951V26.4659C81.1771 26.0879 84.4108 25.8681 87.6957 25.8681Z" fill="#ECF0F1"/>
<path d="M152.367 58.2026L162.067 48.502L150.75 37.1846L141.521 46.413C145.512 49.9764 149.149 53.9214 152.367 58.2026Z" fill="#ECF0F1"/>
<path d="M133.293 56.5356L124.278 65.5506C123.017 66.8117 123.017 68.8586 124.278 70.1227C124.912 70.7531 125.739 71.0699 126.564 71.0699C127.392 71.0699 128.22 70.7531 128.85 70.1227L137.865 61.1078C136.413 59.5107 134.89 57.9876 133.293 56.5356Z" fill="#D1D4D1"/>
<path d="M155.436 103.473H142.667C140.879 103.473 139.434 104.921 139.434 106.706C139.434 108.491 140.879 109.94 142.667 109.94H155.436C155.488 108.86 155.601 107.799 155.601 106.706C155.601 105.613 155.488 104.552 155.436 103.473Z" fill="#D1D4D1"/>
<path d="M137.866 152.304L128.851 143.289C127.59 142.028 125.543 142.028 124.279 143.289C123.018 144.553 123.018 146.6 124.279 147.861L133.294 156.876C134.891 155.424 136.414 153.901 137.866 152.304Z" fill="#D1D4D1"/>
<path d="M87.6951 38.8022C86.6021 38.8022 85.5416 38.9154 84.4614 38.9671V51.7362C84.4614 53.5211 85.9101 54.9698 87.6951 54.9698C89.4801 54.9698 90.9288 53.5211 90.9288 51.7362V38.9671C89.8489 38.9154 88.7881 38.8022 87.6951 38.8022Z" fill="#D1D4D1"/>
<path d="M87.6951 158.442C85.9101 158.442 84.4614 159.891 84.4614 161.676V174.445C85.5413 174.497 86.6021 174.61 87.6951 174.61C88.7881 174.61 89.8485 174.497 90.9288 174.445V161.676C90.9288 159.891 89.4801 158.442 87.6951 158.442Z" fill="#D1D4D1"/>
<path d="M46.5403 143.29L37.5254 152.305C38.9803 153.899 40.5034 155.426 42.0975 156.877L51.1124 147.862C52.3769 146.598 52.3769 144.554 51.1124 143.29C49.848 142.026 47.8044 142.026 46.5403 143.29Z" fill="#D1D4D1"/>
<path d="M19.9563 109.939H32.7254C34.5137 109.939 35.9591 108.491 35.9591 106.706C35.9591 104.921 34.5137 103.472 32.7254 103.472H19.9563C19.9047 104.552 19.7915 105.613 19.7915 106.706C19.7915 107.799 19.9043 108.86 19.9563 109.939Z" fill="#D1D4D1"/>
<path d="M37.5254 61.1085L46.5403 70.1234C47.1707 70.7538 47.9985 71.0706 48.8264 71.0706C49.6542 71.0706 50.4787 70.7538 51.1124 70.1234C52.3736 68.8589 52.3736 66.8124 51.1124 65.5513L42.0975 56.5364C40.5004 57.9884 38.9774 59.5111 37.5254 61.1085Z" fill="#D1D4D1"/>
<path d="M53.7079 41.5477L60.3215 45.1273C60.5031 45.2269 60.7193 45.286 60.9494 45.286C61.6656 45.286 62.2469 44.7189 62.2469 44.0202C62.2469 43.5459 61.9805 43.1325 61.5843 42.9164L61.5774 42.9131L56.3288 40.0726L60.4996 37.7234C60.8993 37.5023 61.1657 37.0905 61.1657 36.6179C61.1657 35.9192 60.5844 35.3521 59.8682 35.3521C59.6226 35.3521 59.3925 35.4196 59.197 35.5344L59.2022 35.531L55.0348 37.8769L55.1299 32.0257C55.1299 32.0206 55.1299 32.0138 55.1299 32.0071C55.1299 31.3151 54.5608 30.7514 53.8533 30.7396H53.8515C53.1596 30.7903 52.6077 31.3151 52.5351 31.9801V31.9868L52.4157 39.352L43.92 44.1366V34.569L50.4038 30.7801C50.7844 30.5557 51.0352 30.1523 51.0352 29.6932C51.0352 28.9945 50.454 28.4275 49.7378 28.4275C49.4921 28.4275 49.2603 28.495 49.0648 28.6114L49.07 28.608L43.92 31.6172V26.922C43.92 26.2233 43.3388 25.6562 42.6226 25.6562C41.9064 25.6562 41.3251 26.2233 41.3251 26.922V31.6206L36.182 28.6064C35.9918 28.495 35.7634 28.4292 35.5195 28.4292C34.8033 28.4292 34.2238 28.9962 34.2238 29.6932C34.2238 30.1489 34.4712 30.5489 34.8431 30.7717L34.8483 30.7751L41.3251 34.5707V44.1366L32.8329 39.3537L32.7118 31.9801C32.7118 31.97 32.7118 31.9598 32.7118 31.948C32.7118 31.2763 32.153 30.7312 31.4645 30.7312C31.4403 30.7312 31.4144 30.7312 31.3901 30.7329H31.3936C30.6861 30.7447 30.1169 31.3067 30.1169 31.9987C30.1169 32.0054 30.1169 32.0122 30.1169 32.0189V32.0172L30.2138 37.8752L26.0447 35.5276C25.863 35.4264 25.6451 35.3673 25.4132 35.3673C24.6971 35.3673 24.1158 35.9344 24.1158 36.6331C24.1158 37.0921 24.3666 37.4938 24.742 37.7166L24.7472 37.72L28.9164 40.0676L23.6729 42.9046C23.2716 43.124 23.0035 43.5375 23.0035 44.0117C23.0035 44.7105 23.5847 45.2775 24.3009 45.2775C24.531 45.2775 24.749 45.2185 24.9358 45.1155L24.9289 45.1189L31.5372 41.5443L40.0277 46.3273L31.5355 51.1102L24.9289 47.5272C24.7472 47.4277 24.5293 47.3686 24.2992 47.3686C23.5813 47.3686 23 47.9357 23 48.6361C23 49.1103 23.2664 49.5238 23.6626 49.7398L23.6695 49.7432L28.9146 52.5887L24.749 54.9346C24.358 55.1574 24.1002 55.5658 24.1002 56.0316C24.1002 56.732 24.6815 57.2991 25.3994 57.2991C25.6381 57.2974 25.863 57.2366 26.0551 57.1269L26.0481 57.1303L30.2155 54.7827L30.1117 60.6306C30.1117 60.6373 30.1117 60.6441 30.1117 60.6508C30.1117 61.3428 30.6791 61.9065 31.3867 61.92H31.4092C32.1167 61.92 32.6928 61.3664 32.7066 60.6779L32.8381 53.3043L41.332 48.5196V58.0822L34.8483 61.8812C34.466 62.1057 34.2134 62.509 34.2134 62.9698C34.2134 63.6685 34.7946 64.2338 35.5091 64.2338C35.7582 64.2338 35.99 64.1647 36.1872 64.0465L36.182 64.0499L41.332 61.0323V65.7342C41.332 66.4329 41.9133 67 42.6295 67C43.3457 67 43.9269 66.4329 43.9269 65.7342V61.0407L49.07 64.0465C49.262 64.1613 49.4938 64.2288 49.7412 64.2288C50.4574 64.2288 51.0369 63.6617 51.0369 62.9647C51.0369 62.5056 50.7861 62.1023 50.409 61.8812L50.4038 61.8778L43.9269 58.0906V48.5179L52.4174 53.3009L52.5506 60.6779C52.5645 61.3664 53.1405 61.92 53.8481 61.92H53.8723C54.5781 61.9065 55.1455 61.3445 55.1455 60.6542C55.1455 60.6458 55.1455 60.639 55.1455 60.6306V60.6323L55.04 54.7793L59.2091 57.1286C59.3942 57.2349 59.6191 57.2974 59.8561 57.2974C60.3353 57.2974 60.7522 57.0459 60.9788 56.6712L60.9823 56.6645C61.0913 56.4822 61.1553 56.2645 61.1553 56.0316C61.1553 55.5641 60.8958 55.1574 60.5118 54.938L60.5048 54.9346L56.3409 52.5887L61.5826 49.7449C61.9857 49.5238 62.2538 49.1103 62.2538 48.6361C62.2538 47.9357 61.6725 47.3686 60.9546 47.3686C60.7211 47.3686 60.5031 47.4294 60.3128 47.534L60.3197 47.5306L53.7183 51.1102L45.2244 46.3273L53.7079 41.5477ZM67.7671 24.8124C68.4833 24.8124 69.0645 24.2453 69.0645 23.5466C69.0645 22.8479 68.4833 22.2808 67.7671 22.2808H63.6516V18.2658C63.6516 17.5671 63.0703 17 62.3541 17C61.6379 17 61.0567 17.5671 61.0567 18.2658V22.2808H56.9412C56.225 22.2808 55.6437 22.8479 55.6437 23.5466C55.6437 24.2453 56.225 24.8124 56.9412 24.8124H61.0567V28.8274C61.0567 29.5262 61.6379 30.0932 62.3541 30.0932C63.0703 30.0932 63.6516 29.5262 63.6516 28.8274V24.8124H67.7671ZM72.0694 36.2989L73.6177 34.7867C73.8495 34.5572 73.9948 34.2433 73.9948 33.8956C73.9948 33.1952 73.4136 32.6282 72.6956 32.6282C72.3375 32.6282 72.014 32.7682 71.7805 32.9978L70.2322 34.5083L68.6839 32.9978C68.4487 32.7666 68.1217 32.6231 67.7619 32.6231C67.044 32.6231 66.4627 33.1902 66.4627 33.8906C66.4627 34.2416 66.6097 34.5589 66.845 34.7884L68.395 36.3006L66.8467 37.8128C66.6115 38.0423 66.4679 38.3579 66.4679 38.7073C66.4679 39.4077 67.0491 39.9748 67.7671 39.9748C68.1269 39.9748 68.4504 39.833 68.6857 39.6035L70.2339 38.093L71.7822 39.6035C72.0175 39.833 72.3427 39.9748 72.7008 39.9748C73.4187 39.9748 74 39.4077 74 38.7073C74 38.3579 73.8547 38.0406 73.6211 37.8128L72.0694 36.2989Z" fill="#4AE9FF"/>
<path d="M53.7079 41.5477L60.3215 45.1273C60.5031 45.2269 60.7193 45.286 60.9494 45.286C61.6656 45.286 62.2469 44.7189 62.2469 44.0202C62.2469 43.5459 61.9805 43.1325 61.5843 42.9164L61.5774 42.9131L56.3288 40.0726L60.4996 37.7234C60.8993 37.5023 61.1657 37.0905 61.1657 36.6179C61.1657 35.9192 60.5844 35.3521 59.8682 35.3521C59.6226 35.3521 59.3925 35.4196 59.197 35.5344L59.2022 35.531L55.0348 37.8769L55.1299 32.0257C55.1299 32.0206 55.1299 32.0138 55.1299 32.0071C55.1299 31.3151 54.5608 30.7514 53.8533 30.7396H53.8515C53.1596 30.7903 52.6077 31.3151 52.5351 31.9801V31.9868L52.4157 39.352L43.92 44.1366V34.569L50.4038 30.7801C50.7844 30.5557 51.0352 30.1523 51.0352 29.6932C51.0352 28.9945 50.454 28.4275 49.7378 28.4275C49.4921 28.4275 49.2603 28.495 49.0648 28.6114L49.07 28.608L43.92 31.6172V26.922C43.92 26.2233 43.3388 25.6562 42.6226 25.6562C41.9064 25.6562 41.3251 26.2233 41.3251 26.922V31.6206L36.182 28.6064C35.9918 28.495 35.7634 28.4292 35.5195 28.4292C34.8033 28.4292 34.2238 28.9962 34.2238 29.6932C34.2238 30.1489 34.4712 30.5489 34.8431 30.7717L34.8483 30.7751L41.3251 34.5707V44.1366L32.8329 39.3537L32.7118 31.9801C32.7118 31.97 32.7118 31.9598 32.7118 31.948C32.7118 31.2763 32.153 30.7312 31.4645 30.7312C31.4403 30.7312 31.4144 30.7312 31.3901 30.7329H31.3936C30.6861 30.7447 30.1169 31.3067 30.1169 31.9987C30.1169 32.0054 30.1169 32.0122 30.1169 32.0189V32.0172L30.2138 37.8752L26.0447 35.5276C25.863 35.4264 25.6451 35.3673 25.4132 35.3673C24.6971 35.3673 24.1158 35.9344 24.1158 36.6331C24.1158 37.0921 24.3666 37.4938 24.742 37.7166L24.7472 37.72L28.9164 40.0676L23.6729 42.9046C23.2716 43.124 23.0035 43.5375 23.0035 44.0117C23.0035 44.7105 23.5847 45.2775 24.3009 45.2775C24.531 45.2775 24.749 45.2185 24.9358 45.1155L24.9289 45.1189L31.5372 41.5443L40.0277 46.3273L31.5355 51.1102L24.9289 47.5272C24.7472 47.4277 24.5293 47.3686 24.2992 47.3686C23.5813 47.3686 23 47.9357 23 48.6361C23 49.1103 23.2664 49.5238 23.6626 49.7398L23.6695 49.7432L28.9146 52.5887L24.749 54.9346C24.358 55.1574 24.1002 55.5658 24.1002 56.0316C24.1002 56.732 24.6815 57.2991 25.3994 57.2991C25.6381 57.2974 25.863 57.2366 26.0551 57.1269L26.0481 57.1303L30.2155 54.7827L30.1117 60.6306C30.1117 60.6373 30.1117 60.6441 30.1117 60.6508C30.1117 61.3428 30.6791 61.9065 31.3867 61.92H31.4092C32.1167 61.92 32.6928 61.3664 32.7066 60.6779L32.8381 53.3043L41.332 48.5196V58.0822L34.8483 61.8812C34.466 62.1057 34.2134 62.509 34.2134 62.9698C34.2134 63.6685 34.7946 64.2338 35.5091 64.2338C35.7582 64.2338 35.99 64.1647 36.1872 64.0465L36.182 64.0499L41.332 61.0323V65.7342C41.332 66.4329 41.9133 67 42.6295 67C43.3457 67 43.9269 66.4329 43.9269 65.7342V61.0407L49.07 64.0465C49.262 64.1613 49.4938 64.2288 49.7412 64.2288C50.4574 64.2288 51.0369 63.6617 51.0369 62.9647C51.0369 62.5056 50.7861 62.1023 50.409 61.8812L50.4038 61.8778L43.9269 58.0906V48.5179L52.4174 53.3009L52.5506 60.6779C52.5645 61.3664 53.1405 61.92 53.8481 61.92H53.8723C54.5781 61.9065 55.1455 61.3445 55.1455 60.6542C55.1455 60.6458 55.1455 60.639 55.1455 60.6306V60.6323L55.04 54.7793L59.2091 57.1286C59.3942 57.2349 59.6191 57.2974 59.8561 57.2974C60.3353 57.2974 60.7522 57.0459 60.9788 56.6712L60.9823 56.6645C61.0913 56.4822 61.1553 56.2645 61.1553 56.0316C61.1553 55.5641 60.8958 55.1574 60.5118 54.938L60.5048 54.9346L56.3409 52.5887L61.5826 49.7449C61.9857 49.5238 62.2538 49.1103 62.2538 48.6361C62.2538 47.9357 61.6725 47.3686 60.9546 47.3686C60.7211 47.3686 60.5031 47.4294 60.3128 47.534L60.3197 47.5306L53.7183 51.1102L45.2244 46.3273L53.7079 41.5477ZM67.7671 24.8124C68.4833 24.8124 69.0645 24.2453 69.0645 23.5466C69.0645 22.8479 68.4833 22.2808 67.7671 22.2808H63.6516V18.2658C63.6516 17.5671 63.0703 17 62.3541 17C61.6379 17 61.0567 17.5671 61.0567 18.2658V22.2808H56.9412C56.225 22.2808 55.6437 22.8479 55.6437 23.5466C55.6437 24.2453 56.225 24.8124 56.9412 24.8124H61.0567V28.8274C61.0567 29.5262 61.6379 30.0932 62.3541 30.0932C63.0703 30.0932 63.6516 29.5262 63.6516 28.8274V24.8124H67.7671ZM72.0694 36.2989L73.6177 34.7867C73.8495 34.5572 73.9948 34.2433 73.9948 33.8956C73.9948 33.1952 73.4136 32.6282 72.6956 32.6282C72.3375 32.6282 72.014 32.7682 71.7805 32.9978L70.2322 34.5083L68.6839 32.9978C68.4487 32.7666 68.1217 32.6231 67.7619 32.6231C67.044 32.6231 66.4627 33.1902 66.4627 33.8906C66.4627 34.2416 66.6097 34.5589 66.845 34.7884L68.395 36.3006L66.8467 37.8128C66.6115 38.0423 66.4679 38.3579 66.4679 38.7073C66.4679 39.4077 67.0491 39.9748 67.7671 39.9748C68.1269 39.9748 68.4504 39.833 68.6857 39.6035L70.2339 38.093L71.7822 39.6035C72.0175 39.833 72.3427 39.9748 72.7008 39.9748C73.4187 39.9748 74 39.4077 74 38.7073C74 38.3579 73.8547 38.0406 73.6211 37.8128L72.0694 36.2989Z" fill="#4AE9FF"/>
<path d="M53.7079 41.5477L60.3215 45.1273C60.5031 45.2269 60.7193 45.286 60.9494 45.286C61.6656 45.286 62.2469 44.7189 62.2469 44.0202C62.2469 43.5459 61.9805 43.1325 61.5843 42.9164L61.5774 42.9131L56.3288 40.0726L60.4996 37.7234C60.8993 37.5023 61.1657 37.0905 61.1657 36.6179C61.1657 35.9192 60.5844 35.3521 59.8682 35.3521C59.6226 35.3521 59.3925 35.4196 59.197 35.5344L59.2022 35.531L55.0348 37.8769L55.1299 32.0257C55.1299 32.0206 55.1299 32.0138 55.1299 32.0071C55.1299 31.3151 54.5608 30.7514 53.8533 30.7396H53.8515C53.1596 30.7903 52.6077 31.3151 52.5351 31.9801V31.9868L52.4157 39.352L43.92 44.1366V34.569L50.4038 30.7801C50.7844 30.5557 51.0352 30.1523 51.0352 29.6932C51.0352 28.9945 50.454 28.4275 49.7378 28.4275C49.4921 28.4275 49.2603 28.495 49.0648 28.6114L49.07 28.608L43.92 31.6172V26.922C43.92 26.2233 43.3388 25.6562 42.6226 25.6562C41.9064 25.6562 41.3251 26.2233 41.3251 26.922V31.6206L36.182 28.6064C35.9918 28.495 35.7634 28.4292 35.5195 28.4292C34.8033 28.4292 34.2238 28.9962 34.2238 29.6932C34.2238 30.1489 34.4712 30.5489 34.8431 30.7717L34.8483 30.7751L41.3251 34.5707V44.1366L32.8329 39.3537L32.7118 31.9801C32.7118 31.97 32.7118 31.9598 32.7118 31.948C32.7118 31.2763 32.153 30.7312 31.4645 30.7312C31.4403 30.7312 31.4144 30.7312 31.3901 30.7329H31.3936C30.6861 30.7447 30.1169 31.3067 30.1169 31.9987C30.1169 32.0054 30.1169 32.0122 30.1169 32.0189V32.0172L30.2138 37.8752L26.0447 35.5276C25.863 35.4264 25.6451 35.3673 25.4132 35.3673C24.6971 35.3673 24.1158 35.9344 24.1158 36.6331C24.1158 37.0921 24.3666 37.4938 24.742 37.7166L24.7472 37.72L28.9164 40.0676L23.6729 42.9046C23.2716 43.124 23.0035 43.5375 23.0035 44.0117C23.0035 44.7105 23.5847 45.2775 24.3009 45.2775C24.531 45.2775 24.749 45.2185 24.9358 45.1155L24.9289 45.1189L31.5372 41.5443L40.0277 46.3273L31.5355 51.1102L24.9289 47.5272C24.7472 47.4277 24.5293 47.3686 24.2992 47.3686C23.5813 47.3686 23 47.9357 23 48.6361C23 49.1103 23.2664 49.5238 23.6626 49.7398L23.6695 49.7432L28.9146 52.5887L24.749 54.9346C24.358 55.1574 24.1002 55.5658 24.1002 56.0316C24.1002 56.732 24.6815 57.2991 25.3994 57.2991C25.6381 57.2974 25.863 57.2366 26.0551 57.1269L26.0481 57.1303L30.2155 54.7827L30.1117 60.6306C30.1117 60.6373 30.1117 60.6441 30.1117 60.6508C30.1117 61.3428 30.6791 61.9065 31.3867 61.92H31.4092C32.1167 61.92 32.6928 61.3664 32.7066 60.6779L32.8381 53.3043L41.332 48.5196V58.0822L34.8483 61.8812C34.466 62.1057 34.2134 62.509 34.2134 62.9698C34.2134 63.6685 34.7946 64.2338 35.5091 64.2338C35.7582 64.2338 35.99 64.1647 36.1872 64.0465L36.182 64.0499L41.332 61.0323V65.7342C41.332 66.4329 41.9133 67 42.6295 67C43.3457 67 43.9269 66.4329 43.9269 65.7342V61.0407L49.07 64.0465C49.262 64.1613 49.4938 64.2288 49.7412 64.2288C50.4574 64.2288 51.0369 63.6617 51.0369 62.9647C51.0369 62.5056 50.7861 62.1023 50.409 61.8812L50.4038 61.8778L43.9269 58.0906V48.5179L52.4174 53.3009L52.5506 60.6779C52.5645 61.3664 53.1405 61.92 53.8481 61.92H53.8723C54.5781 61.9065 55.1455 61.3445 55.1455 60.6542C55.1455 60.6458 55.1455 60.639 55.1455 60.6306V60.6323L55.04 54.7793L59.2091 57.1286C59.3942 57.2349 59.6191 57.2974 59.8561 57.2974C60.3353 57.2974 60.7522 57.0459 60.9788 56.6712L60.9823 56.6645C61.0913 56.4822 61.1553 56.2645 61.1553 56.0316C61.1553 55.5641 60.8958 55.1574 60.5118 54.938L60.5048 54.9346L56.3409 52.5887L61.5826 49.7449C61.9857 49.5238 62.2538 49.1103 62.2538 48.6361C62.2538 47.9357 61.6725 47.3686 60.9546 47.3686C60.7211 47.3686 60.5031 47.4294 60.3128 47.534L60.3197 47.5306L53.7183 51.1102L45.2244 46.3273L53.7079 41.5477ZM67.7671 24.8124C68.4833 24.8124 69.0645 24.2453 69.0645 23.5466C69.0645 22.8479 68.4833 22.2808 67.7671 22.2808H63.6516V18.2658C63.6516 17.5671 63.0703 17 62.3541 17C61.6379 17 61.0567 17.5671 61.0567 18.2658V22.2808H56.9412C56.225 22.2808 55.6437 22.8479 55.6437 23.5466C55.6437 24.2453 56.225 24.8124 56.9412 24.8124H61.0567V28.8274C61.0567 29.5262 61.6379 30.0932 62.3541 30.0932C63.0703 30.0932 63.6516 29.5262 63.6516 28.8274V24.8124H67.7671ZM72.0694 36.2989L73.6177 34.7867C73.8495 34.5572 73.9948 34.2433 73.9948 33.8956C73.9948 33.1952 73.4136 32.6282 72.6956 32.6282C72.3375 32.6282 72.014 32.7682 71.7805 32.9978L70.2322 34.5083L68.6839 32.9978C68.4487 32.7666 68.1217 32.6231 67.7619 32.6231C67.044 32.6231 66.4627 33.1902 66.4627 33.8906C66.4627 34.2416 66.6097 34.5589 66.845 34.7884L68.395 36.3006L66.8467 37.8128C66.6115 38.0423 66.4679 38.3579 66.4679 38.7073C66.4679 39.4077 67.0491 39.9748 67.7671 39.9748C68.1269 39.9748 68.4504 39.833 68.6857 39.6035L70.2339 38.093L71.7822 39.6035C72.0175 39.833 72.3427 39.9748 72.7008 39.9748C73.4187 39.9748 74 39.4077 74 38.7073C74 38.3579 73.8547 38.0406 73.6211 37.8128L72.0694 36.2989Z" fill="#00E0FF"/>
<path d="M123.218 163.706L112.066 158.121C111.759 157.966 111.395 157.874 111.007 157.874C109.799 157.874 108.819 158.759 108.819 159.849C108.819 160.588 109.268 161.233 109.936 161.57L109.948 161.576L118.799 166.007L111.765 169.672C111.091 170.016 110.642 170.659 110.642 171.396C110.642 172.486 111.622 173.371 112.83 173.371C113.244 173.371 113.632 173.265 113.962 173.086L113.953 173.092L120.981 169.432L120.82 178.56C120.82 178.568 120.82 178.578 120.82 178.589C120.82 179.668 121.78 180.548 122.973 180.566H122.976C124.143 180.487 125.073 179.668 125.196 178.631V178.621L125.397 167.131L139.723 159.667V174.592L128.79 180.503C128.148 180.853 127.725 181.482 127.725 182.199C127.725 183.289 128.705 184.173 129.913 184.173C130.327 184.173 130.718 184.068 131.048 183.886L131.039 183.891L139.723 179.197V186.522C139.723 187.612 140.703 188.496 141.911 188.496C143.119 188.496 144.099 187.612 144.099 186.522V179.192L152.771 183.894C153.092 184.068 153.477 184.171 153.889 184.171C155.096 184.171 156.074 183.286 156.074 182.199C156.074 181.488 155.656 180.864 155.029 180.516L155.021 180.511L144.099 174.59V159.667L158.419 167.128L158.623 178.631C158.623 178.647 158.623 178.663 158.623 178.681C158.623 179.729 159.565 180.579 160.726 180.579C160.767 180.579 160.811 180.579 160.852 180.577H160.846C162.039 180.558 162.999 179.682 162.999 178.602C162.999 178.592 162.999 178.581 162.999 178.571V178.573L162.836 169.435L169.866 173.097C170.172 173.255 170.54 173.347 170.931 173.347C172.138 173.347 173.118 172.462 173.118 171.372C173.118 170.656 172.695 170.03 172.062 169.682L172.054 169.677L165.023 166.015L173.865 161.589C174.542 161.247 174.994 160.602 174.994 159.862C174.994 158.772 174.014 157.887 172.806 157.887C172.418 157.887 172.051 157.979 171.736 158.14L171.747 158.135L160.604 163.711L146.287 156.249L160.607 148.788L171.747 154.378C172.054 154.533 172.421 154.625 172.809 154.625C174.02 154.625 175 153.74 175 152.648C175 151.908 174.551 151.263 173.883 150.926L173.871 150.921L165.026 146.482L172.051 142.822C172.71 142.475 173.145 141.837 173.145 141.111C173.145 140.018 172.165 139.133 170.954 139.133C170.551 139.136 170.172 139.231 169.848 139.402L169.86 139.397L162.833 143.059L163.008 133.936C163.008 133.926 163.008 133.915 163.008 133.905C163.008 132.825 162.051 131.946 160.858 131.925H160.82C159.627 131.925 158.655 132.788 158.632 133.863L158.41 145.365L144.087 152.829V137.912L155.021 131.985C155.665 131.635 156.091 131.006 156.091 130.287C156.091 129.197 155.111 128.315 153.906 128.315C153.486 128.315 153.095 128.423 152.763 128.607L152.771 128.602L144.087 133.31V125.975C144.087 124.885 143.107 124 141.899 124C140.692 124 139.711 124.885 139.711 125.975V133.297L131.039 128.607C130.715 128.428 130.324 128.323 129.907 128.323C128.699 128.323 127.722 129.208 127.722 130.295C127.722 131.011 128.145 131.64 128.781 131.985L128.79 131.991L139.711 137.899V152.832L125.394 145.371L125.17 133.863C125.146 132.788 124.175 131.925 122.982 131.925H122.941C121.751 131.946 120.794 132.823 120.794 133.899C120.794 133.913 120.794 133.923 120.794 133.936V133.934L120.972 143.064L113.941 139.399C113.629 139.234 113.25 139.136 112.85 139.136C112.042 139.136 111.339 139.528 110.957 140.113L110.951 140.123C110.768 140.408 110.66 140.747 110.66 141.111C110.66 141.84 111.097 142.475 111.745 142.817L111.757 142.822L118.778 146.482L109.939 150.918C109.259 151.263 108.807 151.908 108.807 152.648C108.807 153.74 109.787 154.625 110.998 154.625C111.392 154.625 111.759 154.53 112.08 154.367L112.069 154.372L123.2 148.788L137.524 156.249L123.218 163.706ZM99.5104 189.813C98.3027 189.813 97.3226 190.697 97.3226 191.787C97.3226 192.877 98.3027 193.762 99.5104 193.762H106.45V200.025C106.45 201.115 107.43 202 108.638 202C109.846 202 110.826 201.115 110.826 200.025V193.762H117.766C118.974 193.762 119.954 192.877 119.954 191.787C119.954 190.697 118.974 189.813 117.766 189.813H110.826V183.549C110.826 182.459 109.846 181.575 108.638 181.575C107.43 181.575 106.45 182.459 106.45 183.549V189.813H99.5104ZM92.2555 171.894L89.6447 174.253C89.2538 174.611 89.0088 175.1 89.0088 175.643C89.0088 176.735 89.9889 177.62 91.1995 177.62C91.8034 177.62 92.3489 177.402 92.7427 177.043L95.3535 174.687L97.9643 177.043C98.3611 177.404 98.9124 177.628 99.5192 177.628C100.73 177.628 101.71 176.743 101.71 175.651C101.71 175.103 101.462 174.608 101.065 174.25L98.4515 171.891L101.062 169.532C101.459 169.174 101.701 168.682 101.701 168.137C101.701 167.044 100.721 166.159 99.5104 166.159C98.9037 166.159 98.3582 166.381 97.9614 166.739L95.3506 169.095L92.7398 166.739C92.343 166.381 91.7946 166.159 91.1908 166.159C89.9801 166.159 89 167.044 89 168.137C89 168.682 89.245 169.177 89.6388 169.532L92.2555 171.894Z" fill="#4AE9FF"/>
<path d="M123.218 163.706L112.066 158.121C111.759 157.966 111.395 157.874 111.007 157.874C109.799 157.874 108.819 158.759 108.819 159.849C108.819 160.588 109.268 161.233 109.936 161.57L109.948 161.576L118.799 166.007L111.765 169.672C111.091 170.016 110.642 170.659 110.642 171.396C110.642 172.486 111.622 173.371 112.83 173.371C113.244 173.371 113.632 173.265 113.962 173.086L113.953 173.092L120.981 169.432L120.82 178.56C120.82 178.568 120.82 178.578 120.82 178.589C120.82 179.668 121.78 180.548 122.973 180.566H122.976C124.143 180.487 125.073 179.668 125.196 178.631V178.621L125.397 167.131L139.723 159.667V174.592L128.79 180.503C128.148 180.853 127.725 181.482 127.725 182.199C127.725 183.289 128.705 184.173 129.913 184.173C130.327 184.173 130.718 184.068 131.048 183.886L131.039 183.891L139.723 179.197V186.522C139.723 187.612 140.703 188.496 141.911 188.496C143.119 188.496 144.099 187.612 144.099 186.522V179.192L152.771 183.894C153.092 184.068 153.477 184.171 153.889 184.171C155.096 184.171 156.074 183.286 156.074 182.199C156.074 181.488 155.656 180.864 155.029 180.516L155.021 180.511L144.099 174.59V159.667L158.419 167.128L158.623 178.631C158.623 178.647 158.623 178.663 158.623 178.681C158.623 179.729 159.565 180.579 160.726 180.579C160.767 180.579 160.811 180.579 160.852 180.577H160.846C162.039 180.558 162.999 179.682 162.999 178.602C162.999 178.592 162.999 178.581 162.999 178.571V178.573L162.836 169.435L169.866 173.097C170.172 173.255 170.54 173.347 170.931 173.347C172.138 173.347 173.118 172.462 173.118 171.372C173.118 170.656 172.695 170.03 172.062 169.682L172.054 169.677L165.023 166.015L173.865 161.589C174.542 161.247 174.994 160.602 174.994 159.862C174.994 158.772 174.014 157.887 172.806 157.887C172.418 157.887 172.051 157.979 171.736 158.14L171.747 158.135L160.604 163.711L146.287 156.249L160.607 148.788L171.747 154.378C172.054 154.533 172.421 154.625 172.809 154.625C174.02 154.625 175 153.74 175 152.648C175 151.908 174.551 151.263 173.883 150.926L173.871 150.921L165.026 146.482L172.051 142.822C172.71 142.475 173.145 141.837 173.145 141.111C173.145 140.018 172.165 139.133 170.954 139.133C170.551 139.136 170.172 139.231 169.848 139.402L169.86 139.397L162.833 143.059L163.008 133.936C163.008 133.926 163.008 133.915 163.008 133.905C163.008 132.825 162.051 131.946 160.858 131.925H160.82C159.627 131.925 158.655 132.788 158.632 133.863L158.41 145.365L144.087 152.829V137.912L155.021 131.985C155.665 131.635 156.091 131.006 156.091 130.287C156.091 129.197 155.111 128.315 153.906 128.315C153.486 128.315 153.095 128.423 152.763 128.607L152.771 128.602L144.087 133.31V125.975C144.087 124.885 143.107 124 141.899 124C140.692 124 139.711 124.885 139.711 125.975V133.297L131.039 128.607C130.715 128.428 130.324 128.323 129.907 128.323C128.699 128.323 127.722 129.208 127.722 130.295C127.722 131.011 128.145 131.64 128.781 131.985L128.79 131.991L139.711 137.899V152.832L125.394 145.371L125.17 133.863C125.146 132.788 124.175 131.925 122.982 131.925H122.941C121.751 131.946 120.794 132.823 120.794 133.899C120.794 133.913 120.794 133.923 120.794 133.936V133.934L120.972 143.064L113.941 139.399C113.629 139.234 113.25 139.136 112.85 139.136C112.042 139.136 111.339 139.528 110.957 140.113L110.951 140.123C110.768 140.408 110.66 140.747 110.66 141.111C110.66 141.84 111.097 142.475 111.745 142.817L111.757 142.822L118.778 146.482L109.939 150.918C109.259 151.263 108.807 151.908 108.807 152.648C108.807 153.74 109.787 154.625 110.998 154.625C111.392 154.625 111.759 154.53 112.08 154.367L112.069 154.372L123.2 148.788L137.524 156.249L123.218 163.706ZM99.5104 189.813C98.3027 189.813 97.3226 190.697 97.3226 191.787C97.3226 192.877 98.3027 193.762 99.5104 193.762H106.45V200.025C106.45 201.115 107.43 202 108.638 202C109.846 202 110.826 201.115 110.826 200.025V193.762H117.766C118.974 193.762 119.954 192.877 119.954 191.787C119.954 190.697 118.974 189.813 117.766 189.813H110.826V183.549C110.826 182.459 109.846 181.575 108.638 181.575C107.43 181.575 106.45 182.459 106.45 183.549V189.813H99.5104ZM92.2555 171.894L89.6447 174.253C89.2538 174.611 89.0088 175.1 89.0088 175.643C89.0088 176.735 89.9889 177.62 91.1995 177.62C91.8034 177.62 92.3489 177.402 92.7427 177.043L95.3535 174.687L97.9643 177.043C98.3611 177.404 98.9124 177.628 99.5192 177.628C100.73 177.628 101.71 176.743 101.71 175.651C101.71 175.103 101.462 174.608 101.065 174.25L98.4515 171.891L101.062 169.532C101.459 169.174 101.701 168.682 101.701 168.137C101.701 167.044 100.721 166.159 99.5104 166.159C98.9037 166.159 98.3582 166.381 97.9614 166.739L95.3506 169.095L92.7398 166.739C92.343 166.381 91.7946 166.159 91.1908 166.159C89.9801 166.159 89 167.044 89 168.137C89 168.682 89.245 169.177 89.6388 169.532L92.2555 171.894Z" fill="#4AE9FF"/>
<path d="M123.218 163.706L112.066 158.121C111.759 157.966 111.395 157.874 111.007 157.874C109.799 157.874 108.819 158.759 108.819 159.849C108.819 160.588 109.268 161.233 109.936 161.57L109.948 161.576L118.799 166.007L111.765 169.672C111.091 170.016 110.642 170.659 110.642 171.396C110.642 172.486 111.622 173.371 112.83 173.371C113.244 173.371 113.632 173.265 113.962 173.086L113.953 173.092L120.981 169.432L120.82 178.56C120.82 178.568 120.82 178.578 120.82 178.589C120.82 179.668 121.78 180.548 122.973 180.566H122.976C124.143 180.487 125.073 179.668 125.196 178.631V178.621L125.397 167.131L139.723 159.667V174.592L128.79 180.503C128.148 180.853 127.725 181.482 127.725 182.199C127.725 183.289 128.705 184.173 129.913 184.173C130.327 184.173 130.718 184.068 131.048 183.886L131.039 183.891L139.723 179.197V186.522C139.723 187.612 140.703 188.496 141.911 188.496C143.119 188.496 144.099 187.612 144.099 186.522V179.192L152.771 183.894C153.092 184.068 153.477 184.171 153.889 184.171C155.096 184.171 156.074 183.286 156.074 182.199C156.074 181.488 155.656 180.864 155.029 180.516L155.021 180.511L144.099 174.59V159.667L158.419 167.128L158.623 178.631C158.623 178.647 158.623 178.663 158.623 178.681C158.623 179.729 159.565 180.579 160.726 180.579C160.767 180.579 160.811 180.579 160.852 180.577H160.846C162.039 180.558 162.999 179.682 162.999 178.602C162.999 178.592 162.999 178.581 162.999 178.571V178.573L162.836 169.435L169.866 173.097C170.172 173.255 170.54 173.347 170.931 173.347C172.138 173.347 173.118 172.462 173.118 171.372C173.118 170.656 172.695 170.03 172.062 169.682L172.054 169.677L165.023 166.015L173.865 161.589C174.542 161.247 174.994 160.602 174.994 159.862C174.994 158.772 174.014 157.887 172.806 157.887C172.418 157.887 172.051 157.979 171.736 158.14L171.747 158.135L160.604 163.711L146.287 156.249L160.607 148.788L171.747 154.378C172.054 154.533 172.421 154.625 172.809 154.625C174.02 154.625 175 153.74 175 152.648C175 151.908 174.551 151.263 173.883 150.926L173.871 150.921L165.026 146.482L172.051 142.822C172.71 142.475 173.145 141.837 173.145 141.111C173.145 140.018 172.165 139.133 170.954 139.133C170.551 139.136 170.172 139.231 169.848 139.402L169.86 139.397L162.833 143.059L163.008 133.936C163.008 133.926 163.008 133.915 163.008 133.905C163.008 132.825 162.051 131.946 160.858 131.925H160.82C159.627 131.925 158.655 132.788 158.632 133.863L158.41 145.365L144.087 152.829V137.912L155.021 131.985C155.665 131.635 156.091 131.006 156.091 130.287C156.091 129.197 155.111 128.315 153.906 128.315C153.486 128.315 153.095 128.423 152.763 128.607L152.771 128.602L144.087 133.31V125.975C144.087 124.885 143.107 124 141.899 124C140.692 124 139.711 124.885 139.711 125.975V133.297L131.039 128.607C130.715 128.428 130.324 128.323 129.907 128.323C128.699 128.323 127.722 129.208 127.722 130.295C127.722 131.011 128.145 131.64 128.781 131.985L128.79 131.991L139.711 137.899V152.832L125.394 145.371L125.17 133.863C125.146 132.788 124.175 131.925 122.982 131.925H122.941C121.751 131.946 120.794 132.823 120.794 133.899C120.794 133.913 120.794 133.923 120.794 133.936V133.934L120.972 143.064L113.941 139.399C113.629 139.234 113.25 139.136 112.85 139.136C112.042 139.136 111.339 139.528 110.957 140.113L110.951 140.123C110.768 140.408 110.66 140.747 110.66 141.111C110.66 141.84 111.097 142.475 111.745 142.817L111.757 142.822L118.778 146.482L109.939 150.918C109.259 151.263 108.807 151.908 108.807 152.648C108.807 153.74 109.787 154.625 110.998 154.625C111.392 154.625 111.759 154.53 112.08 154.367L112.069 154.372L123.2 148.788L137.524 156.249L123.218 163.706ZM99.5104 189.813C98.3027 189.813 97.3226 190.697 97.3226 191.787C97.3226 192.877 98.3027 193.762 99.5104 193.762H106.45V200.025C106.45 201.115 107.43 202 108.638 202C109.846 202 110.826 201.115 110.826 200.025V193.762H117.766C118.974 193.762 119.954 192.877 119.954 191.787C119.954 190.697 118.974 189.813 117.766 189.813H110.826V183.549C110.826 182.459 109.846 181.575 108.638 181.575C107.43 181.575 106.45 182.459 106.45 183.549V189.813H99.5104ZM92.2555 171.894L89.6447 174.253C89.2538 174.611 89.0088 175.1 89.0088 175.643C89.0088 176.735 89.9889 177.62 91.1995 177.62C91.8034 177.62 92.3489 177.402 92.7427 177.043L95.3535 174.687L97.9643 177.043C98.3611 177.404 98.9124 177.628 99.5192 177.628C100.73 177.628 101.71 176.743 101.71 175.651C101.71 175.103 101.462 174.608 101.065 174.25L98.4515 171.891L101.062 169.532C101.459 169.174 101.701 168.682 101.701 168.137C101.701 167.044 100.721 166.159 99.5104 166.159C98.9037 166.159 98.3582 166.381 97.9614 166.739L95.3506 169.095L92.7398 166.739C92.343 166.381 91.7946 166.159 91.1908 166.159C89.9801 166.159 89 167.044 89 168.137C89 168.682 89.245 169.177 89.6388 169.532L92.2555 171.894Z" fill="#00E0FF"/>
</svg>
