<svg width="175" height="188" viewBox="0 0 175 188" fill="none" xmlns="http://www.w3.org/2000/svg">
<path d="M168.534 106.706C168.534 62.0609 132.341 25.8679 87.6958 25.8679C43.0505 25.8679 6.85791 62.0605 6.85791 106.706C6.85791 151.351 43.0509 187.544 87.6958 187.544C132.341 187.544 168.534 151.351 168.534 106.706Z" fill="#ECF0F1"/>
<path d="M87.6961 174.61C50.2522 174.61 19.7925 144.15 19.7925 106.706C19.7925 69.2622 50.2522 38.8025 87.6961 38.8025C125.14 38.8025 155.6 69.2622 155.6 106.706C155.6 144.15 125.14 174.61 87.6961 174.61Z" fill="white"/>
<path d="M106.908 12.9339H68.4842C66.5926 12.9339 65.0601 11.4013 65.0601 9.51271V3.42121C65.0601 1.53295 66.5926 0 68.4842 0H106.908C108.799 0 110.329 1.53258 110.329 3.42121V9.51308C110.329 11.4013 108.8 12.9339 106.908 12.9339Z" fill="#D1D4D1"/>
<path d="M163.292 49.7272L150.358 36.7933C147.681 34.116 147.681 29.7699 150.358 27.0927C153.035 24.4154 157.381 24.4154 160.059 27.0927L172.993 40.0266C175.67 42.7038 175.67 47.0499 172.993 49.7272C170.315 52.4045 165.969 52.4045 163.292 49.7272Z" fill="#D1D4D1"/>
<path d="M11.7086 50.1195L24.6425 37.1856C27.3197 34.5084 27.3197 30.1623 24.6425 27.485C21.9652 24.8077 17.6191 24.8077 14.9419 27.485L2.00794 40.4189C-0.669315 43.0962 -0.669315 47.4423 2.00794 50.1195C4.68557 52.7968 9.03131 52.7968 11.7086 50.1195Z" fill="#D1D4D1"/>
<path d="M33.8693 46.4122L24.6441 37.187L13.3267 48.5045L23.024 58.2018C26.2415 53.9202 29.8825 49.9755 33.8693 46.4122Z" fill="#ECF0F1"/>
<path d="M87.6957 25.8681C90.9811 25.8681 94.2143 26.0879 97.3964 26.4663V12.9338H77.9951V26.4659C81.1771 26.0879 84.4108 25.8681 87.6957 25.8681Z" fill="#ECF0F1"/>
<path d="M152.367 58.2026L162.067 48.502L150.75 37.1846L141.521 46.413C145.512 49.9764 149.149 53.9214 152.367 58.2026Z" fill="#ECF0F1"/>
<path d="M133.293 56.5356L124.278 65.5506C123.017 66.8117 123.017 68.8586 124.278 70.1227C124.912 70.7531 125.739 71.0699 126.564 71.0699C127.392 71.0699 128.22 70.7531 128.85 70.1227L137.865 61.1078C136.413 59.5107 134.89 57.9876 133.293 56.5356Z" fill="#D1D4D1"/>
<path d="M155.436 103.473H142.667C140.879 103.473 139.434 104.921 139.434 106.706C139.434 108.491 140.879 109.94 142.667 109.94H155.436C155.488 108.86 155.601 107.799 155.601 106.706C155.601 105.613 155.488 104.552 155.436 103.473Z" fill="#D1D4D1"/>
<path d="M137.866 152.304L128.851 143.289C127.59 142.028 125.543 142.028 124.279 143.289C123.018 144.553 123.018 146.6 124.279 147.861L133.294 156.876C134.891 155.424 136.414 153.901 137.866 152.304Z" fill="#D1D4D1"/>
<path d="M87.6951 38.8022C86.6021 38.8022 85.5416 38.9154 84.4614 38.9671V51.7362C84.4614 53.5211 85.9101 54.9698 87.6951 54.9698C89.4801 54.9698 90.9288 53.5211 90.9288 51.7362V38.9671C89.8489 38.9154 88.7881 38.8022 87.6951 38.8022Z" fill="#D1D4D1"/>
<path d="M87.6951 158.442C85.9101 158.442 84.4614 159.891 84.4614 161.676V174.445C85.5413 174.497 86.6021 174.61 87.6951 174.61C88.7881 174.61 89.8485 174.497 90.9288 174.445V161.676C90.9288 159.891 89.4801 158.442 87.6951 158.442Z" fill="#D1D4D1"/>
<path d="M46.5403 143.29L37.5254 152.305C38.9803 153.899 40.5034 155.426 42.0975 156.877L51.1124 147.862C52.3769 146.598 52.3769 144.554 51.1124 143.29C49.848 142.026 47.8044 142.026 46.5403 143.29Z" fill="#D1D4D1"/>
<path d="M19.9563 109.939H32.7254C34.5137 109.939 35.9591 108.491 35.9591 106.706C35.9591 104.921 34.5137 103.472 32.7254 103.472H19.9563C19.9047 104.552 19.7915 105.613 19.7915 106.706C19.7915 107.799 19.9043 108.86 19.9563 109.939Z" fill="#D1D4D1"/>
<path d="M37.5254 61.1085L46.5403 70.1234C47.1707 70.7538 47.9985 71.0706 48.8264 71.0706C49.6542 71.0706 50.4787 70.7538 51.1124 70.1234C52.3736 68.8589 52.3736 66.8124 51.1124 65.5513L42.0975 56.5364C40.5004 57.9884 38.9774 59.5111 37.5254 61.1085Z" fill="#D1D4D1"/>
</svg>
