<svg width="175" height="188" viewBox="0 0 175 188" fill="none" xmlns="http://www.w3.org/2000/svg">
<path d="M168.534 106.706C168.534 62.0607 132.341 25.8677 87.6958 25.8677C43.0505 25.8677 6.85791 62.0603 6.85791 106.706C6.85791 151.351 43.0509 187.543 87.6958 187.543C132.341 187.543 168.534 151.351 168.534 106.706Z" fill="#ECF0F1"/>
<path d="M87.6961 174.61C50.2522 174.61 19.7925 144.15 19.7925 106.706C19.7925 69.2625 50.2522 38.8027 87.6961 38.8027C125.14 38.8027 155.6 69.2625 155.6 106.706C155.6 144.15 125.14 174.61 87.6961 174.61Z" fill="white"/>
<path d="M106.908 12.9339H68.4842C66.5926 12.9339 65.0601 11.4013 65.0601 9.51271V3.42121C65.0601 1.53295 66.5926 0 68.4842 0H106.908C108.799 0 110.329 1.53258 110.329 3.42121V9.51308C110.329 11.4013 108.8 12.9339 106.908 12.9339Z" fill="#D1D4D1"/>
<path d="M163.292 49.7274L150.358 36.7935C147.681 34.1163 147.681 29.7702 150.358 27.0929C153.035 24.4156 157.381 24.4156 160.059 27.0929L172.993 40.0268C175.67 42.7041 175.67 47.0502 172.993 49.7274C170.315 52.4047 165.969 52.4047 163.292 49.7274Z" fill="#D1D4D1"/>
<path d="M11.7086 50.1195L24.6425 37.1856C27.3197 34.5084 27.3197 30.1623 24.6425 27.485C21.9652 24.8077 17.6191 24.8077 14.9419 27.485L2.00794 40.4189C-0.669315 43.0962 -0.669315 47.4423 2.00794 50.1195C4.68557 52.7968 9.03131 52.7968 11.7086 50.1195Z" fill="#D1D4D1"/>
<path d="M33.8693 46.4127L24.6441 37.1875L13.3267 48.505L23.024 58.2023C26.2415 53.9206 29.8825 49.976 33.8693 46.4127Z" fill="#ECF0F1"/>
<path d="M87.6957 25.8684C90.9811 25.8684 94.2143 26.0881 97.3964 26.4665V12.9341H77.9951V26.4662C81.1771 26.0881 84.4108 25.8684 87.6957 25.8684Z" fill="#ECF0F1"/>
<path d="M152.367 58.2026L162.067 48.502L150.75 37.1846L141.521 46.413C145.512 49.9764 149.149 53.9214 152.367 58.2026Z" fill="#ECF0F1"/>
<path d="M133.293 56.5356L124.278 65.5506C123.017 66.8117 123.017 68.8586 124.278 70.1227C124.912 70.7531 125.739 71.0699 126.564 71.0699C127.392 71.0699 128.22 70.7531 128.85 70.1227L137.865 61.1078C136.413 59.5107 134.89 57.9876 133.293 56.5356Z" fill="#D1D4D1"/>
<path d="M155.436 103.473H142.667C140.879 103.473 139.434 104.921 139.434 106.706C139.434 108.491 140.879 109.94 142.667 109.94H155.436C155.488 108.86 155.601 107.799 155.601 106.706C155.601 105.613 155.488 104.552 155.436 103.473Z" fill="#D1D4D1"/>
<path d="M137.866 152.304L128.851 143.289C127.59 142.027 125.543 142.027 124.279 143.289C123.018 144.553 123.018 146.6 124.279 147.861L133.294 156.876C134.891 155.424 136.414 153.901 137.866 152.304Z" fill="#D1D4D1"/>
<path d="M87.6951 38.8022C86.6021 38.8022 85.5416 38.9154 84.4614 38.9671V51.7362C84.4614 53.5211 85.9101 54.9698 87.6951 54.9698C89.4801 54.9698 90.9288 53.5211 90.9288 51.7362V38.9671C89.8489 38.9154 88.7881 38.8022 87.6951 38.8022Z" fill="#D1D4D1"/>
<path d="M87.6951 158.442C85.9101 158.442 84.4614 159.891 84.4614 161.676V174.445C85.5413 174.497 86.6021 174.61 87.6951 174.61C88.7881 174.61 89.8485 174.497 90.9288 174.445V161.676C90.9288 159.891 89.4801 158.442 87.6951 158.442Z" fill="#D1D4D1"/>
<path d="M46.5403 143.29L37.5254 152.305C38.9803 153.899 40.5034 155.426 42.0975 156.877L51.1124 147.862C52.3769 146.598 52.3769 144.554 51.1124 143.29C49.848 142.026 47.8044 142.026 46.5403 143.29Z" fill="#D1D4D1"/>
<path d="M19.9563 109.939H32.7254C34.5137 109.939 35.9591 108.491 35.9591 106.706C35.9591 104.921 34.5137 103.472 32.7254 103.472H19.9563C19.9047 104.552 19.7915 105.613 19.7915 106.706C19.7915 107.799 19.9043 108.86 19.9563 109.939Z" fill="#D1D4D1"/>
<path d="M37.5254 61.1082L46.5403 70.1232C47.1707 70.7536 47.9985 71.0704 48.8264 71.0704C49.6542 71.0704 50.4787 70.7536 51.1124 70.1232C52.3736 68.8587 52.3736 66.8122 51.1124 65.551L42.0975 56.5361C40.5004 57.9881 38.9774 59.5108 37.5254 61.1082Z" fill="#D1D4D1"/>
<path d="M110.5 62.5128V30.4142C110.5 29.724 111.183 29.2413 111.832 29.4755C118.15 31.7548 121.978 33.5033 128.131 36.8017C128.357 36.923 128.5 37.1601 128.5 37.4168C128.5 37.4721 128.493 37.5271 128.48 37.5808L121.116 68.0223C121.043 68.3236 120.834 68.574 120.551 68.7003L93.2837 80.8734C93.0989 80.9558 92.9435 81.0924 92.838 81.2651L89.3533 86.9674C88.8266 87.8291 87.5 87.4559 87.5 86.4459V81.4872C87.5 81.1797 87.6415 80.8893 87.8837 80.6997L110.116 63.3003C110.358 63.1107 110.5 62.8203 110.5 62.5128Z" fill="#7E7E7E" stroke="black"/>
<path d="M30.8939 140.26L18.5294 145.559C17.9807 145.794 17.7599 146.457 18.0594 146.973C21.2914 152.546 23.5262 155.501 26.9799 159.75C27.4479 160.325 28.3586 160.207 28.6644 159.531L37.4111 140.196C37.4697 140.067 37.5 139.926 37.5 139.784V130.936C37.5 130.658 37.6158 130.392 37.8195 130.203L39.3875 128.747C40.2345 127.961 39.2937 126.603 38.2599 127.12L32.0528 130.224C31.714 130.393 31.5 130.739 31.5 131.118V139.341C31.5 139.741 31.2616 140.102 30.8939 140.26Z" fill="#7E7E7E" stroke="black"/>
<path d="M121.944 166.289L119.389 179.492C119.23 180.309 120.082 180.948 120.821 180.564C128.127 176.764 132.42 173.928 138.404 169.257C139.058 168.746 138.836 167.709 138.032 167.508L132.269 166.067C132.093 166.023 131.932 165.932 131.804 165.804L125.395 159.395C124.938 158.938 125.028 158.175 125.578 157.836L137.024 150.793C137.32 150.611 137.5 150.288 137.5 149.941V142.294C137.5 142.102 137.555 141.914 137.659 141.753L141.851 135.231C142.493 134.233 141.17 133.147 140.315 133.971L132.305 141.705C132.11 141.894 132 142.153 132 142.425V148.492C132 148.811 131.848 149.111 131.59 149.3L119.627 158.042C119.258 158.311 119.119 158.797 119.288 159.221L121.891 165.727C121.962 165.905 121.981 166.1 121.944 166.289Z" fill="#7E7E7E" stroke="black"/>
</svg>
