<svg width="256" height="256" viewBox="0 0 256 256" fill="none" xmlns="http://www.w3.org/2000/svg">
<path d="M208.534 127.906C208.534 83.2609 172.342 47.0679 127.696 47.0679C83.051 47.0679 46.8584 83.2605 46.8584 127.906C46.8584 172.551 83.0514 208.744 127.696 208.744C172.341 208.744 208.534 172.551 208.534 127.906Z" fill="#ECF0F1"/>
<path d="M127.696 195.81C90.2517 195.81 59.792 165.35 59.792 127.907C59.792 90.4626 90.2517 60.0029 127.696 60.0029C165.139 60.0029 195.599 90.4626 195.599 127.907C195.599 165.35 165.14 195.81 127.696 195.81Z" fill="white"/>
<path d="M146.908 34.1341H108.485C106.593 34.1341 105.061 32.6015 105.061 30.7129V24.6214C105.061 22.7331 106.593 21.2002 108.485 21.2002H146.908C148.8 21.2002 150.33 22.7328 150.33 24.6214V30.7133C150.33 32.6015 148.8 34.1341 146.908 34.1341Z" fill="#D1D4D1"/>
<path d="M203.291 70.9276L190.358 57.9937C187.68 55.3165 187.68 50.9704 190.358 48.2931C193.035 45.6158 197.381 45.6158 200.058 48.2931L212.992 61.227C215.669 63.9043 215.669 68.2504 212.992 70.9276C210.314 73.6049 205.969 73.6049 203.291 70.9276Z" fill="#D1D4D1"/>
<path d="M51.7086 71.3197L64.6425 58.3858C67.3197 55.7086 67.3197 51.3624 64.6425 48.6852C61.9652 46.0079 57.6191 46.0079 54.9419 48.6852L42.0079 61.6191C39.3307 64.2964 39.3307 68.6425 42.0079 71.3197C44.6856 73.997 49.0313 73.997 51.7086 71.3197Z" fill="#D1D4D1"/>
<path d="M73.8688 67.6129L64.6436 58.3877L53.3262 69.7051L63.0235 79.4025C66.241 75.1208 69.882 71.1762 73.8688 67.6129Z" fill="#ECF0F1"/>
<path d="M127.695 47.0686C130.98 47.0686 134.213 47.2883 137.395 47.6667V34.1343H117.994V47.6664C121.176 47.2883 124.41 47.0686 127.695 47.0686Z" fill="#ECF0F1"/>
<path d="M192.367 79.4028L202.067 69.7022L190.75 58.3848L181.521 67.6132C185.512 71.1766 189.149 75.1216 192.367 79.4028Z" fill="#ECF0F1"/>
<path d="M173.294 77.7358L164.279 86.7508C163.018 88.0119 163.018 90.0588 164.279 91.3229C164.913 91.9533 165.74 92.2701 166.565 92.2701C167.393 92.2701 168.221 91.9533 168.851 91.3229L177.866 82.308C176.414 80.7109 174.891 79.1878 173.294 77.7358Z" fill="#D1D4D1"/>
<path d="M195.436 124.673H182.667C180.879 124.673 179.434 126.122 179.434 127.907C179.434 129.691 180.879 131.14 182.667 131.14H195.436C195.488 130.06 195.601 129 195.601 127.907C195.601 126.813 195.488 125.753 195.436 124.673Z" fill="#D1D4D1"/>
<path d="M177.866 173.504L168.851 164.489C167.59 163.228 165.543 163.228 164.279 164.489C163.018 165.753 163.018 167.8 164.279 169.061L173.294 178.076C174.891 176.624 176.414 175.101 177.866 173.504Z" fill="#D1D4D1"/>
<path d="M127.696 60.0024C126.603 60.0024 125.542 60.1156 124.462 60.1673V72.9364C124.462 74.7213 125.911 76.17 127.696 76.17C129.481 76.17 130.929 74.7213 130.929 72.9364V60.1673C129.849 60.1156 128.789 60.0024 127.696 60.0024Z" fill="#D1D4D1"/>
<path d="M127.696 179.643C125.911 179.643 124.462 181.091 124.462 182.876V195.645C125.542 195.697 126.603 195.81 127.696 195.81C128.789 195.81 129.849 195.697 130.929 195.645V182.876C130.929 181.091 129.481 179.643 127.696 179.643Z" fill="#D1D4D1"/>
<path d="M86.5403 164.49L77.5254 173.505C78.9803 175.099 80.5034 176.626 82.0975 178.077L91.1124 169.062C92.3769 167.798 92.3769 165.754 91.1124 164.49C89.848 163.226 87.8044 163.226 86.5403 164.49Z" fill="#D1D4D1"/>
<path d="M59.9568 131.14H72.7259C74.5142 131.14 75.9596 129.691 75.9596 127.906C75.9596 126.121 74.5142 124.672 72.7259 124.672H59.9568C59.9052 125.752 59.792 126.813 59.792 127.906C59.792 128.999 59.9048 130.06 59.9568 131.14Z" fill="#D1D4D1"/>
<path d="M77.5254 82.3084L86.5403 91.3234C87.1707 91.9537 87.9985 92.2706 88.8264 92.2706C89.6542 92.2706 90.4787 91.9537 91.1124 91.3234C92.3736 90.0589 92.3736 88.0124 91.1124 86.7512L82.0975 77.7363C80.5004 79.1883 78.9774 80.711 77.5254 82.3084Z" fill="#D1D4D1"/>
<path d="M150.5 83.5128V51.4142C150.5 50.724 151.183 50.2413 151.832 50.4755C158.15 52.7548 161.978 54.5033 168.131 57.8017C168.357 57.923 168.5 58.1601 168.5 58.4168C168.5 58.4721 168.493 58.5271 168.48 58.5808L161.116 89.0223C161.043 89.3236 160.834 89.574 160.551 89.7003L133.284 101.873C133.099 101.956 132.944 102.092 132.838 102.265L129.353 107.967C128.827 108.829 127.5 108.456 127.5 107.446V102.487C127.5 102.18 127.642 101.889 127.884 101.7L150.116 84.3003C150.358 84.1107 150.5 83.8203 150.5 83.5128Z" fill="#7E7E7E"/>
<path d="M70.8939 161.26L58.5294 166.559C57.9807 166.794 57.7599 167.457 58.0594 167.973C61.2914 173.546 63.5262 176.501 66.9799 180.75C67.4479 181.325 68.3586 181.207 68.6644 180.531L77.4111 161.196C77.4697 161.067 77.5 160.926 77.5 160.784V151.936C77.5 151.658 77.6158 151.392 77.8195 151.203L79.3875 149.747C80.2345 148.961 79.2937 147.603 78.2599 148.12L72.0528 151.224C71.714 151.393 71.5 151.739 71.5 152.118V160.341C71.5 160.741 71.2616 161.102 70.8939 161.26Z" fill="#7E7E7E"/>
<path d="M161.944 187.289L159.389 200.492C159.23 201.309 160.082 201.948 160.821 201.564C168.127 197.764 172.42 194.928 178.404 190.257C179.058 189.746 178.836 188.709 178.032 188.508L172.269 187.067C172.093 187.023 171.932 186.932 171.804 186.804L165.395 180.395C164.938 179.938 165.028 179.175 165.578 178.836L177.024 171.793C177.32 171.611 177.5 171.288 177.5 170.941V163.294C177.5 163.102 177.555 162.914 177.659 162.753L181.851 156.231C182.493 155.233 181.17 154.147 180.315 154.971L172.305 162.705C172.11 162.894 172 163.153 172 163.425V169.492C172 169.811 171.848 170.111 171.59 170.3L159.627 179.042C159.258 179.311 159.119 179.797 159.288 180.221L161.891 186.727C161.962 186.905 161.981 187.1 161.944 187.289Z" fill="#7E7E7E"/>
</svg>
